<svg xmlns="http://www.w3.org/2000/svg" viewBox="0 0 296.37 56.01"><defs><style>.cls-1{fill:#2c9794;}.cls-2{fill:none;}.cls-3{fill:#ee9230;}.cls-4{fill:#fff;}</style></defs><g id="레이어_2" data-name="레이어 2"><g id="레이어_1-2" data-name="레이어 1"><path class="cls-1" d="M167.09,51.24V54c0,.09,0,.13-.13.13H165.8V51.24l-2.48-3.89h1.41l1.75,2.76,1.73-2.77h1.41Z"/><path class="cls-1" d="M175.28,51.67a.52.52,0,0,1-.15.38.49.49,0,0,1-.36.15h-2.9v.07a.74.74,0,0,0,.16.51.9.9,0,0,0,.4.26,2.36,2.36,0,0,0,.54.12l.57,0H174l.41,0,.38,0,.37,0v.76A.17.17,0,0,1,175,54a6.94,6.94,0,0,1-.8.08h-.71a3.58,3.58,0,0,1-2.12-.5,1.77,1.77,0,0,1-.66-1.49v-1a1.63,1.63,0,0,1,.19-.82,1.7,1.7,0,0,1,.48-.58,2.06,2.06,0,0,1,.66-.34,2.69,2.69,0,0,1,.73-.11h.42a2.87,2.87,0,0,1,.77.11,2.1,2.1,0,0,1,.68.3,1.66,1.66,0,0,1,.48.51,1.44,1.44,0,0,1,.18.73Zm-2.41-1.43a1.3,1.3,0,0,0-.74.19.81.81,0,0,0-.26.68v.14h2.22c.06,0,.09,0,.09-.08V51a1,1,0,0,0-.07-.4.65.65,0,0,0-.5-.36,1.4,1.4,0,0,0-.37,0Z"/><path class="cls-1" d="M178.77,54.11a2.17,2.17,0,0,1-.84-.15,1.92,1.92,0,0,1-.62-.41,1.68,1.68,0,0,1-.37-.6,2,2,0,0,1-.13-.75v-1a2.53,2.53,0,0,1,.12-.8,1.66,1.66,0,0,1,.38-.61,1.62,1.62,0,0,1,.61-.4,2.44,2.44,0,0,1,.85-.14h.7a2.38,2.38,0,0,1,.84.14,1.7,1.7,0,0,1,.61.4,1.74,1.74,0,0,1,.36.62,2.55,2.55,0,0,1,.12.81v.88a2.23,2.23,0,0,1-.14.85,1.62,1.62,0,0,1-.4.61,1.48,1.48,0,0,1-.6.37,2.15,2.15,0,0,1-.77.13Zm.48-.9a.93.93,0,0,0,.73-.29,1.12,1.12,0,0,0,.26-.79v-.85a1.74,1.74,0,0,0-.05-.39,1.2,1.2,0,0,0-.17-.34.92.92,0,0,0-.31-.24,1.13,1.13,0,0,0-.47-.09h-.34a.85.85,0,0,0-.72.28,1.2,1.2,0,0,0-.22.75v.92a1,1,0,0,0,.27.77.93.93,0,0,0,.69.27Z"/><path class="cls-1" d="M189.36,54a.14.14,0,0,1-.16.16h-1V50.86a1,1,0,0,0,0-.34.29.29,0,0,0-.12-.19.52.52,0,0,0-.23-.08h-1V54a.17.17,0,0,1,0,.1.15.15,0,0,1-.1,0h-1.07V50.23l-1.2,0c-.06,0-.08,0-.08.09v3.58a.21.21,0,0,1-.19.19h-1V49.67c0-.24.12-.36.34-.36l4.16,0a4.24,4.24,0,0,1,.87.07,1.05,1.05,0,0,1,.54.26,1,1,0,0,1,.27.47,3,3,0,0,1,.08.73Z"/><path class="cls-1" d="M192.48,47.06V48.4a.28.28,0,0,1,0,.15l-.06.13-.48.79-.06.07a.1.1,0,0,1-.08,0h-.22c-.07,0-.11,0-.11-.1V47.06Z"/><path class="cls-1" d="M198.23,50.34l-.57,0-.53-.05-.46,0a1.91,1.91,0,0,0-.34,0l-.31,0a.66.66,0,0,0-.25.05.43.43,0,0,0-.17.12.29.29,0,0,0-.06.19.28.28,0,0,0,.06.18.49.49,0,0,0,.15.13l.2.1.23.07,1.08.28a3.82,3.82,0,0,1,.51.18,2.25,2.25,0,0,1,.43.27,1.28,1.28,0,0,1,.29.37,1.06,1.06,0,0,1,.11.48,1.54,1.54,0,0,1-.14.69,1.16,1.16,0,0,1-.38.44,2,2,0,0,1-.63.23,5.44,5.44,0,0,1-.86.07h-1.07c-.35,0-.7-.05-1-.09V53l1,.1a8.84,8.84,0,0,0,1,0h.3a1,1,0,0,0,.29-.07.62.62,0,0,0,.21-.13.32.32,0,0,0,.08-.24.31.31,0,0,0-.14-.27,1.39,1.39,0,0,0-.45-.18l-1-.25a3.4,3.4,0,0,1-.59-.19,2.24,2.24,0,0,1-.48-.28,1.44,1.44,0,0,1-.32-.38,1,1,0,0,1-.12-.49,1.24,1.24,0,0,1,.44-1,2.47,2.47,0,0,1,1.45-.34l1,0,1,.06Z"/><path class="cls-1" d="M203,49.52a2.25,2.25,0,0,1,.19-.94,2,2,0,0,1,.51-.67,2.32,2.32,0,0,1,.72-.41,3.31,3.31,0,0,1,.82-.16q.72,0,1.38,0c.45,0,.89,0,1.33.08v1c-.42-.05-.84-.08-1.26-.1a8.84,8.84,0,0,0-1.26,0,1.47,1.47,0,0,0-.49.13,1.12,1.12,0,0,0-.37.26,1,1,0,0,0-.22.35,1.14,1.14,0,0,0-.07.41v2.24a1.69,1.69,0,0,0,.08.56,1.17,1.17,0,0,0,.69.77,1.69,1.69,0,0,0,.64.13,10.46,10.46,0,0,0,1.12,0c.38,0,.75-.06,1.13-.11v.87a.1.1,0,0,1-.09.11c-.38,0-.76.08-1.13.1s-.76,0-1.16,0a3.46,3.46,0,0,1-1.15-.22,2.45,2.45,0,0,1-.79-.51,1.82,1.82,0,0,1-.46-.72,2.38,2.38,0,0,1-.16-.89Z"/><path class="cls-1" d="M213.48,53.74a.32.32,0,0,1-.08.24.3.3,0,0,1-.24.1l-2.41,0a2.32,2.32,0,0,1-.55-.06,1,1,0,0,1-.43-.19.86.86,0,0,1-.29-.36,1.63,1.63,0,0,1-.1-.58V52a.82.82,0,0,1,.11-.42,1,1,0,0,1,.28-.33,1.56,1.56,0,0,1,.43-.21,1.91,1.91,0,0,1,.54-.08h.8l.79,0v-.19a.6.6,0,0,0-.06-.29.3.3,0,0,0-.17-.16.79.79,0,0,0-.31-.07l-.5,0h-.79c-.26,0-.51,0-.74.06v-.93l.69-.05c.24,0,.47,0,.7,0h.72a3.52,3.52,0,0,1,.68.08,1.61,1.61,0,0,1,.55.24.77.77,0,0,1,.31.48,1.85,1.85,0,0,1,.07.41v3.24Zm-1.15-1.85-.62,0a4.26,4.26,0,0,0-.62,0,.74.74,0,0,0-.43.11.35.35,0,0,0-.14.28v.41c0,.33.15.49.49.49a4.3,4.3,0,0,0,.62,0l.63,0c.05,0,.08,0,.08-.07Z"/><path class="cls-1" d="M219.56,54a.2.2,0,0,1,0,.11.16.16,0,0,1-.11,0h-1v-3a.75.75,0,0,0-.27-.68,1.28,1.28,0,0,0-.74-.18l-.81,0c-.05,0-.07,0-.07.06V54c0,.09,0,.14-.13.14h-1.08V49.58a.25.25,0,0,1,.07-.19.24.24,0,0,1,.2-.08l2.11,0a3.75,3.75,0,0,1,.89.09,1.6,1.6,0,0,1,.6.29,1.18,1.18,0,0,1,.32.53,3,3,0,0,1,.09.8Z"/><path class="cls-1" d="M225.12,50.28c-.25,0-.49,0-.71,0h-.73a3.78,3.78,0,0,0-.64.05,1.07,1.07,0,0,0-.43.2.68.68,0,0,0-.23.36,1.75,1.75,0,0,0-.07.55V52a1.57,1.57,0,0,0,.08.57.73.73,0,0,0,.24.35.91.91,0,0,0,.41.18,2.49,2.49,0,0,0,.59.06h.75l.74,0v.78a.15.15,0,0,1-.17.17l-.77,0h-.76a3.18,3.18,0,0,1-1.12-.17,1.74,1.74,0,0,1-.69-.46,1.6,1.6,0,0,1-.34-.69,3.7,3.7,0,0,1-.09-.83v-.68a1.93,1.93,0,0,1,.59-1.51,2.64,2.64,0,0,1,1.76-.49h.8l.78,0Z"/><path class="cls-1" d="M231.05,51.67a.52.52,0,0,1-.15.38.49.49,0,0,1-.36.15h-2.9v.07a.74.74,0,0,0,.16.51.9.9,0,0,0,.4.26,2.33,2.33,0,0,0,.55.12l.56,0h.47l.41,0,.37,0,.37,0v.76a.17.17,0,0,1-.18.18,6.79,6.79,0,0,1-.79.08h-.72a3.6,3.6,0,0,1-2.12-.5,1.77,1.77,0,0,1-.66-1.49v-1a1.63,1.63,0,0,1,.19-.82,1.82,1.82,0,0,1,.48-.58,2.06,2.06,0,0,1,.66-.34,2.71,2.71,0,0,1,.74-.11H229a2.92,2.92,0,0,1,.77.11,2.15,2.15,0,0,1,.67.3,1.66,1.66,0,0,1,.48.51,1.44,1.44,0,0,1,.18.73Zm-2.41-1.43a1.33,1.33,0,0,0-.74.19.81.81,0,0,0-.26.68v.14h2.22c.06,0,.1,0,.1-.08V51a1,1,0,0,0-.08-.4.59.59,0,0,0-.2-.24.69.69,0,0,0-.29-.12,1.5,1.5,0,0,0-.37,0Z"/><path class="cls-1" d="M235.85,50.24h-1.19a.76.76,0,0,0-.59.22.87.87,0,0,0-.2.62v2.8a.24.24,0,0,1-.23.23h-1V51a1.55,1.55,0,0,1,1.69-1.72h1.49Z"/><path class="cls-1" d="M245.59,54a.13.13,0,0,1,0,.1.25.25,0,0,1-.09,0H244.4v-3h-2.75V54a.13.13,0,0,1-.14.14h-1.08V47.36h1.22v2.82h2.75V47.36h1.19Z"/><path class="cls-1" d="M249.36,54.11a2.16,2.16,0,0,1-.83-.15,1.81,1.81,0,0,1-.62-.41,1.86,1.86,0,0,1-.38-.6,2.27,2.27,0,0,1-.13-.75v-1a2.28,2.28,0,0,1,.13-.8,1.64,1.64,0,0,1,.37-.61,1.66,1.66,0,0,1,.62-.4,2.38,2.38,0,0,1,.84-.14h.71a2.38,2.38,0,0,1,.84.14,1.58,1.58,0,0,1,.6.4,1.63,1.63,0,0,1,.37.62,2.55,2.55,0,0,1,.12.81v.88a2.44,2.44,0,0,1-.14.85,1.75,1.75,0,0,1-.4.61,1.55,1.55,0,0,1-.6.37,2.19,2.19,0,0,1-.77.13Zm.49-.9a.94.94,0,0,0,.73-.29,1.12,1.12,0,0,0,.25-.79v-.85a1.31,1.31,0,0,0-.05-.39.87.87,0,0,0-.48-.58,1.06,1.06,0,0,0-.47-.09h-.34a.83.83,0,0,0-.71.28,1.14,1.14,0,0,0-.22.75v.92a1,1,0,0,0,.27.77.93.93,0,0,0,.69.27Z"/><path class="cls-1" d="M257.24,50.34l-.57,0-.54-.05-.45,0a2,2,0,0,0-.35,0l-.3,0a.62.62,0,0,0-.25.05.37.37,0,0,0-.17.12.29.29,0,0,0-.07.19.28.28,0,0,0,.06.18.64.64,0,0,0,.15.13l.2.1.23.07,1.08.28a3.82,3.82,0,0,1,.51.18,2,2,0,0,1,.43.27,1.28,1.28,0,0,1,.29.37,1,1,0,0,1,.11.48,1.55,1.55,0,0,1-.13.69,1.1,1.1,0,0,1-.39.44,2,2,0,0,1-.63.23,5.31,5.31,0,0,1-.85.07h-1.08c-.35,0-.69-.05-1-.09V53l1,.1a8.94,8.94,0,0,0,1,0h.3a.88.88,0,0,0,.29-.07.54.54,0,0,0,.21-.13.32.32,0,0,0,.09-.24.29.29,0,0,0-.15-.27,1.42,1.42,0,0,0-.44-.18l-1-.25a3.29,3.29,0,0,1-.58-.19,1.84,1.84,0,0,1-.48-.28,1.31,1.31,0,0,1-.33-.38,1.14,1.14,0,0,1-.11-.49,1.21,1.21,0,0,1,.44-1,2.43,2.43,0,0,1,1.45-.34l1,0,1,.06Z"/><path class="cls-1" d="M263.39,52.44a1.91,1.91,0,0,1-.15.82,1.28,1.28,0,0,1-.42.52,1.94,1.94,0,0,1-.66.26,4.46,4.46,0,0,1-.85.08h-1.05v1.67c0,.15-.07.22-.2.22h-1V49.66a.29.29,0,0,1,.09-.21.29.29,0,0,1,.21-.11l1.12,0h1.11a2,2,0,0,1,1.38.42,1.67,1.67,0,0,1,.44,1.27Zm-2-2.2c-.35,0-.7,0-1,0-.05,0-.07,0-.07.08v2.8h.94a2.21,2.21,0,0,0,.48,0A.6.6,0,0,0,262,53a.44.44,0,0,0,.16-.25,1.3,1.3,0,0,0,.05-.43V51a.7.7,0,0,0-.21-.6A1,1,0,0,0,261.36,50.24Z"/><path class="cls-1" d="M266.39,48.7h-1.31V47.36h1.31Zm0,5.24a.15.15,0,0,1-.17.17h-1V49.28h1.2Z"/><path class="cls-1" d="M269.74,49.3h1.11v.84a.11.11,0,0,1-.12.12h-1v2.52c0,.16,0,.27.11.31a.7.7,0,0,0,.36.07h1V54a.13.13,0,0,1-.05.11.14.14,0,0,1-.1,0h-1.21c-.86,0-1.29-.4-1.29-1.19V50.26h-.73v-1h.73V47.88h1.22Z"/><path class="cls-1" d="M276.49,53.74a.32.32,0,0,1-.09.24.3.3,0,0,1-.24.1l-2.41,0a2.32,2.32,0,0,1-.55-.06,1,1,0,0,1-.43-.19.86.86,0,0,1-.29-.36,1.63,1.63,0,0,1-.1-.58V52a.82.82,0,0,1,.11-.42.91.91,0,0,1,.29-.33,1.33,1.33,0,0,1,.43-.21,1.78,1.78,0,0,1,.53-.08h.8l.79,0v-.19a.76.76,0,0,0-.05-.29.37.37,0,0,0-.17-.16.89.89,0,0,0-.32-.07l-.5,0h-.79c-.26,0-.51,0-.74.06v-.93l.69-.05c.24,0,.47,0,.7,0h.72a3.52,3.52,0,0,1,.68.08,1.53,1.53,0,0,1,.55.24.82.82,0,0,1,.32.48,2.7,2.7,0,0,1,.06.41c0,.14,0,.28,0,.42Zm-1.16-1.85-.62,0a4.26,4.26,0,0,0-.62,0,.74.74,0,0,0-.43.11.38.38,0,0,0-.14.28v.41c0,.33.15.49.48.49a4.42,4.42,0,0,0,.63,0l.62,0c.05,0,.08,0,.08-.07Z"/><path class="cls-1" d="M279.52,53.89a.25.25,0,0,1-.06.16.18.18,0,0,1-.13.06h-1V47.36h1.23Z"/><path class="cls-1" d="M162.91,20.82a6.63,6.63,0,0,1-.61,2.9A7.86,7.86,0,0,1,160.57,26,7.4,7.4,0,0,1,158,27.58a9.42,9.42,0,0,1-3.16.55,8.79,8.79,0,0,1-3.15-.55,7.28,7.28,0,0,1-2.55-1.51,6.69,6.69,0,0,1-1.73-2.32,6.18,6.18,0,0,1-.65-2.93,6.29,6.29,0,0,1,.65-2.92,6.68,6.68,0,0,1,1.73-2.29,8.31,8.31,0,0,1,2.55-1.51,9.32,9.32,0,0,1,3.15-.55,10.06,10.06,0,0,1,3.16.55,9.32,9.32,0,0,1,2.54,1.54,8.18,8.18,0,0,1,1.73,2.29A6.87,6.87,0,0,1,162.91,20.82Zm-4.06,0a3.89,3.89,0,0,0-.31-1.54,4.21,4.21,0,0,0-.38-.66,4.44,4.44,0,0,0-.5-.56,4,4,0,0,0-.57-.45,4.81,4.81,0,0,0-.68-.36,4,4,0,0,0-1.52-.29,4.21,4.21,0,0,0-1.59.29,3.87,3.87,0,0,0-1.29.81,3.7,3.7,0,0,0-1.15,2.76,3.87,3.87,0,0,0,.3,1.58,3.23,3.23,0,0,0,.85,1.22,3.49,3.49,0,0,0,1.29.81,4.21,4.21,0,0,0,1.59.29,4,4,0,0,0,1.52-.29,3.9,3.9,0,0,0,1.25-.81,4.2,4.2,0,0,0,.88-1.22A3.71,3.71,0,0,0,158.85,20.82Zm12.7,21.72H156.32A5.76,5.76,0,0,1,153,41.7a2.8,2.8,0,0,1-1.23-2.48V30.54h19.74Zm-4.07-3.41V34H155.87v4.27c0,.61.33.91,1,.91Zm-4.33-16.7h4.33V19h-4.33l0-3.16h4.36V12.94h4.07V28.67h-4.07V25.58h-4.33Z"/><path class="cls-1" d="M175.71,26.71a17.64,17.64,0,0,0,5-3.63,9.2,9.2,0,0,0,2.13-4.19H177.3V15.48h6.17v-2.8h4.06v2.8h5.89v3.41h-5.58a3.21,3.21,0,0,0,.44,1.58,6.57,6.57,0,0,0,1.35,1.9,11.73,11.73,0,0,0,2.24,2,14.19,14.19,0,0,0,1.43.88c.53.29,1.12.58,1.75.86l-1.36,1.25-1.38,1.26a16.29,16.29,0,0,1-4.2-2.48A9.86,9.86,0,0,1,185.43,23a12.92,12.92,0,0,1-1.17,1.83,9.73,9.73,0,0,1-1.54,1.61,18.32,18.32,0,0,1-4.3,2.77,6.75,6.75,0,0,1-.69-.6q-.33-.3-.66-.66c-.25-.19-.48-.39-.7-.59S175.94,27,175.71,26.71Zm25.16,9.83a5.64,5.64,0,0,1-.76,2.93,7.12,7.12,0,0,1-2,2.2A9.08,9.08,0,0,1,195.32,43a10.87,10.87,0,0,1-3.12.46A10.53,10.53,0,0,1,189,43a9.18,9.18,0,0,1-2.76-1.39,7.3,7.3,0,0,1-1.95-2.2,5.82,5.82,0,0,1-.73-2.89,6,6,0,0,1,.75-3,7,7,0,0,1,2-2.21A9.26,9.26,0,0,1,189.07,30a10.78,10.78,0,0,1,3.13-.46,10.45,10.45,0,0,1,3.24.51,9.37,9.37,0,0,1,2.78,1.43,7,7,0,0,1,1.92,2.22A5.7,5.7,0,0,1,200.87,36.54Zm-4.06,0a2.85,2.85,0,0,0-.42-1.54,4.33,4.33,0,0,0-1.09-1.13,5,5,0,0,0-1.47-.71,5.58,5.58,0,0,0-1.59-.24,6.09,6.09,0,0,0-1.71.24,4.51,4.51,0,0,0-1.46.71,3.7,3.7,0,0,0-1,1.15,3.28,3.28,0,0,0,0,3.12,3.51,3.51,0,0,0,1.07,1.1,4.86,4.86,0,0,0,1.47.64,6.51,6.51,0,0,0,1.63.21,6,6,0,0,0,1.67-.24,4.92,4.92,0,0,0,1.48-.69,3.66,3.66,0,0,0,1-1.12A2.89,2.89,0,0,0,196.81,36.54Zm4.33-13.85v6.14h-4.06V12.94h4.06v6.34h4.74v3.41Z"/><path class="cls-1" d="M207.68,31.6V28.38H215V26.81A7.6,7.6,0,0,1,212.9,26a7.18,7.18,0,0,1-1.64-1.27,5.47,5.47,0,0,1-1.07-1.67,5.35,5.35,0,0,1-.38-2,5.13,5.13,0,0,1,.85-2.86h-2.3V15.29h6.46V12.46H219v2.83h6.43v2.93h-2.34a5,5,0,0,1,.89,2.86,5.17,5.17,0,0,1-.39,2,6.31,6.31,0,0,1-1.06,1.67A6.16,6.16,0,0,1,220.93,26a7.48,7.48,0,0,1-2,.77v1.61a42.24,42.24,0,0,0,5.23-.33,23.71,23.71,0,0,0,4-.92V12.94h4.07v8.24H237v3.41H232.3V34.5h-4.07V30.18a18,18,0,0,1-2.81.73c-1,.18-2,.33-3.06.43s-2.11.18-3.17.21-2.1.05-3.11.05Zm24.89,10.78H216.92a5.77,5.77,0,0,1-3.26-.83,2.75,2.75,0,0,1-1.24-2.46V33.53h4.06v4.54q0,.9,1,.9h15.1ZM219.9,21.08a2.39,2.39,0,0,0-.83-1.93,3.25,3.25,0,0,0-2.18-.71,3,3,0,0,0-2.23.77,2.55,2.55,0,0,0-.78,1.87,2.39,2.39,0,0,0,.88,1.91,3.13,3.13,0,0,0,2.13.76,3.07,3.07,0,0,0,2.22-.77A2.55,2.55,0,0,0,219.9,21.08Z"/><path class="cls-1" d="M247.3,27.68a7.64,7.64,0,0,1-4.64-1.32,4.48,4.48,0,0,1-1.79-3.86V13.81h4.06v4h7.25v-4h4.06v2.28h4.67V12.94H265V28.83h-4.07V25.2h-4.67v2.48Zm4.88-6.54h-7.25v.65a3.51,3.51,0,0,0,.13,1,2.31,2.31,0,0,0,.46.84,2.14,2.14,0,0,0,.88.57,4.14,4.14,0,0,0,1.44.21h4.34Zm12.29,15.4a6.26,6.26,0,0,1-.68,2.85A8.1,8.1,0,0,1,262,41.61a10.09,10.09,0,0,1-1.34.8,10.59,10.59,0,0,1-1.43.61,12,12,0,0,1-3.39.48,11,11,0,0,1-3.32-.48,8.75,8.75,0,0,1-2.71-1.38,6.81,6.81,0,0,1-1.86-2.21,5.91,5.91,0,0,1-.68-2.89,6.47,6.47,0,0,1,.68-2.95,6.74,6.74,0,0,1,1.86-2.22A8.75,8.75,0,0,1,252.48,30a11,11,0,0,1,3.32-.48,12,12,0,0,1,3.39.48,10,10,0,0,1,1.42.61,12.89,12.89,0,0,1,1.32.8,7,7,0,0,1,1.86,2.22A6.81,6.81,0,0,1,264.47,36.54Zm-4.07,0a3.43,3.43,0,0,0-.33-1.52,5.81,5.81,0,0,0-1-1.13,3.45,3.45,0,0,0-.68-.39c-.24-.11-.5-.21-.77-.32a7.23,7.23,0,0,0-1.79-.26,6.46,6.46,0,0,0-1.75.26,5.08,5.08,0,0,0-1.46.71,3.43,3.43,0,0,0-1,1.16,3,3,0,0,0-.38,1.49,2.76,2.76,0,0,0,.38,1.48,4.19,4.19,0,0,0,1,1.14,2.48,2.48,0,0,0,.66.4l.79.31L255,40a6.23,6.23,0,0,0,.89.06,6.73,6.73,0,0,0,.91-.06l.88-.16.76-.31a3.51,3.51,0,0,0,.69-.4,4.19,4.19,0,0,0,1-1.14A3.05,3.05,0,0,0,260.4,36.54Zm.51-14.49v-2.8h-4.67v2.8Z"/><path class="cls-1" d="M277.84,33.21V28.87h-7v-3h9c.85,0,1.69,0,2.54-.05s1.69-.1,2.55-.21a39.52,39.52,0,0,0,5-.77l.34,3c-1.31.28-2.69.51-4.13.68-.72.11-1.45.18-2.19.22l-2.25.13v4.38ZM287.9,18.54a4.85,4.85,0,0,1-.59,2.4,5.22,5.22,0,0,1-1.61,1.73,7.78,7.78,0,0,1-2.37,1.06,11.52,11.52,0,0,1-5.83,0,7.3,7.3,0,0,1-2.33-1.11,5.24,5.24,0,0,1-1.54-1.75,4.82,4.82,0,0,1-.56-2.32,5.12,5.12,0,0,1,.57-2.45,5.55,5.55,0,0,1,1.56-1.78,7.46,7.46,0,0,1,2.34-1.11,10.44,10.44,0,0,1,2.91-.39,10.23,10.23,0,0,1,3.08.44,7.27,7.27,0,0,1,2.36,1.19,5.25,5.25,0,0,1,1.49,1.8A5,5,0,0,1,287.9,18.54Zm8.47,24.16H280.19a5.84,5.84,0,0,1-3.28-.83,2.76,2.76,0,0,1-1.23-2.45V34.21h4.06v4.18c0,.6.33.9,1,.9h15.65Zm-12.3-24.19a2.25,2.25,0,0,0-1-2,4.51,4.51,0,0,0-2.58-.69,4.67,4.67,0,0,0-2.69.66,2.29,2.29,0,0,0-.95,2,2.15,2.15,0,0,0,1.05,1.94,4.82,4.82,0,0,0,2.59.66,4.45,4.45,0,0,0,1.39-.21,4,4,0,0,0,1.14-.56,2.88,2.88,0,0,0,.78-.82A1.83,1.83,0,0,0,284.07,18.51Zm1.56,11.58h6.44V12.94h4.06V35.59h-4.06V33h-6.44Z"/><path class="cls-2" d="M70.73,37.36h0Z"/><path class="cls-1" d="M70.79,37.36h-8.1a7.92,7.92,0,1,1,0-15.84H78.08V11.7H62.69a17.74,17.74,0,1,0,0,35.48h16.9v0h-.33C79.26,37.72,71.88,37.36,70.79,37.36Z"/><path class="cls-1" d="M29,20.46h0v7.37a9.59,9.59,0,0,1-19.18,0v-16H0v16a19.41,19.41,0,1,0,38.82,0v-16C28.63,11.85,29,20.46,29,20.46Z"/><path class="cls-1" d="M103.89,11.78A19.44,19.44,0,0,0,84.48,31.19V47.24H94.3v-16a9.59,9.59,0,1,1,19.18,0v7.37h0s-.4,8.61,9.8,8.61v-16A19.44,19.44,0,0,0,103.89,11.78Z"/><path class="cls-3" d="M89.57,11.85a5.93,5.93,0,1,0-5.93-5.92A5.92,5.92,0,0,0,89.57,11.85Z"/><path class="cls-3" d="M36.67,44.11A5.93,5.93,0,1,0,42.6,50,5.93,5.93,0,0,0,36.67,44.11Z"/><path class="cls-4" d="M70.73,37.36h0Z"/><path class="cls-1" d="M162.91,20.82a6.63,6.63,0,0,1-.61,2.9A7.86,7.86,0,0,1,160.57,26,7.4,7.4,0,0,1,158,27.58a9.42,9.42,0,0,1-3.16.55,8.79,8.79,0,0,1-3.15-.55,7.28,7.28,0,0,1-2.55-1.51,6.69,6.69,0,0,1-1.73-2.32,6.18,6.18,0,0,1-.65-2.93,6.29,6.29,0,0,1,.65-2.92,6.68,6.68,0,0,1,1.73-2.29,8.31,8.31,0,0,1,2.55-1.51,9.32,9.32,0,0,1,3.15-.55,10.06,10.06,0,0,1,3.16.55,9.32,9.32,0,0,1,2.54,1.54,8.18,8.18,0,0,1,1.73,2.29A6.87,6.87,0,0,1,162.91,20.82Zm-4.06,0a3.89,3.89,0,0,0-.31-1.54,4.21,4.21,0,0,0-.38-.66,4.44,4.44,0,0,0-.5-.56,4,4,0,0,0-.57-.45,4.81,4.81,0,0,0-.68-.36,4,4,0,0,0-1.52-.29,4.21,4.21,0,0,0-1.59.29,3.87,3.87,0,0,0-1.29.81,3.7,3.7,0,0,0-1.15,2.76,3.87,3.87,0,0,0,.3,1.58,3.23,3.23,0,0,0,.85,1.22,3.49,3.49,0,0,0,1.29.81,4.21,4.21,0,0,0,1.59.29,4,4,0,0,0,1.52-.29,3.9,3.9,0,0,0,1.25-.81,4.2,4.2,0,0,0,.88-1.22A3.71,3.71,0,0,0,158.85,20.82Zm12.7,21.72H156.32A5.76,5.76,0,0,1,153,41.7a2.8,2.8,0,0,1-1.23-2.48V30.54h19.74Zm-4.07-3.41V34H155.87v4.27c0,.61.33.91,1,.91Zm-4.33-16.7h4.33V19h-4.33l0-3.16h4.36V12.94h4.07V28.67h-4.07V25.58h-4.33Z"/><path class="cls-1" d="M175.71,26.71a17.64,17.64,0,0,0,5-3.63,9.2,9.2,0,0,0,2.13-4.19H177.3V15.48h6.17v-2.8h4.06v2.8h5.89v3.41h-5.58a3.21,3.21,0,0,0,.44,1.58,6.57,6.57,0,0,0,1.35,1.9,11.73,11.73,0,0,0,2.24,2,14.19,14.19,0,0,0,1.43.88c.53.29,1.12.58,1.75.86l-1.36,1.25-1.38,1.26a16.29,16.29,0,0,1-4.2-2.48A9.86,9.86,0,0,1,185.43,23a12.92,12.92,0,0,1-1.17,1.83,9.73,9.73,0,0,1-1.54,1.61,18.32,18.32,0,0,1-4.3,2.77,6.75,6.75,0,0,1-.69-.6q-.33-.3-.66-.66c-.25-.19-.48-.39-.7-.59S175.94,27,175.71,26.71Zm25.16,9.83a5.64,5.64,0,0,1-.76,2.93,7.12,7.12,0,0,1-2,2.2A9.08,9.08,0,0,1,195.32,43a10.87,10.87,0,0,1-3.12.46A10.53,10.53,0,0,1,189,43a9.18,9.18,0,0,1-2.76-1.39,7.3,7.3,0,0,1-1.95-2.2,5.82,5.82,0,0,1-.73-2.89,6,6,0,0,1,.75-3,7,7,0,0,1,2-2.21A9.26,9.26,0,0,1,189.07,30a10.78,10.78,0,0,1,3.13-.46,10.45,10.45,0,0,1,3.24.51,9.37,9.37,0,0,1,2.78,1.43,7,7,0,0,1,1.92,2.22A5.7,5.7,0,0,1,200.87,36.54Zm-4.06,0a2.85,2.85,0,0,0-.42-1.54,4.33,4.33,0,0,0-1.09-1.13,5,5,0,0,0-1.47-.71,5.58,5.58,0,0,0-1.59-.24,6.09,6.09,0,0,0-1.71.24,4.51,4.51,0,0,0-1.46.71,3.7,3.7,0,0,0-1,1.15,3.28,3.28,0,0,0,0,3.12,3.51,3.51,0,0,0,1.07,1.1,4.86,4.86,0,0,0,1.47.64,6.51,6.51,0,0,0,1.63.21,6,6,0,0,0,1.67-.24,4.92,4.92,0,0,0,1.48-.69,3.66,3.66,0,0,0,1-1.12A2.89,2.89,0,0,0,196.81,36.54Zm4.33-13.85v6.14h-4.06V12.94h4.06v6.34h4.74v3.41Z"/><path class="cls-1" d="M207.68,31.6V28.38H215V26.81A7.6,7.6,0,0,1,212.9,26a7.18,7.18,0,0,1-1.64-1.27,5.47,5.47,0,0,1-1.07-1.67,5.35,5.35,0,0,1-.38-2,5.13,5.13,0,0,1,.85-2.86h-2.3V15.29h6.46V12.46H219v2.83h6.43v2.93h-2.34a5,5,0,0,1,.89,2.86,5.17,5.17,0,0,1-.39,2,6.31,6.31,0,0,1-1.06,1.67A6.16,6.16,0,0,1,220.93,26a7.48,7.48,0,0,1-2,.77v1.61a42.24,42.24,0,0,0,5.23-.33,23.71,23.71,0,0,0,4-.92V12.94h4.07v8.24H237v3.41H232.3V34.5h-4.07V30.18a18,18,0,0,1-2.81.73c-1,.18-2,.33-3.06.43s-2.11.18-3.17.21-2.1.05-3.11.05Zm24.89,10.78H216.92a5.77,5.77,0,0,1-3.26-.83,2.75,2.75,0,0,1-1.24-2.46V33.53h4.06v4.54q0,.9,1,.9h15.1ZM219.9,21.08a2.39,2.39,0,0,0-.83-1.93,3.25,3.25,0,0,0-2.18-.71,3,3,0,0,0-2.23.77,2.55,2.55,0,0,0-.78,1.87,2.39,2.39,0,0,0,.88,1.91,3.13,3.13,0,0,0,2.13.76,3.07,3.07,0,0,0,2.22-.77A2.55,2.55,0,0,0,219.9,21.08Z"/><path class="cls-1" d="M247.3,27.68a7.64,7.64,0,0,1-4.64-1.32,4.48,4.48,0,0,1-1.79-3.86V13.81h4.06v4h7.25v-4h4.06v2.28h4.67V12.94H265V28.83h-4.07V25.2h-4.67v2.48Zm4.88-6.54h-7.25v.65a3.51,3.51,0,0,0,.13,1,2.31,2.31,0,0,0,.46.84,2.14,2.14,0,0,0,.88.57,4.14,4.14,0,0,0,1.44.21h4.34Zm12.29,15.4a6.26,6.26,0,0,1-.68,2.85A8.1,8.1,0,0,1,262,41.61a10.09,10.09,0,0,1-1.34.8,10.59,10.59,0,0,1-1.43.61,12,12,0,0,1-3.39.48,11,11,0,0,1-3.32-.48,8.75,8.75,0,0,1-2.71-1.38,6.81,6.81,0,0,1-1.86-2.21,5.91,5.91,0,0,1-.68-2.89,6.47,6.47,0,0,1,.68-2.95,6.74,6.74,0,0,1,1.86-2.22A8.75,8.75,0,0,1,252.48,30a11,11,0,0,1,3.32-.48,12,12,0,0,1,3.39.48,10,10,0,0,1,1.42.61,12.89,12.89,0,0,1,1.32.8,7,7,0,0,1,1.86,2.22A6.81,6.81,0,0,1,264.47,36.54Zm-4.07,0a3.43,3.43,0,0,0-.33-1.52,5.81,5.81,0,0,0-1-1.13,3.45,3.45,0,0,0-.68-.39c-.24-.11-.5-.21-.77-.32a7.23,7.23,0,0,0-1.79-.26,6.46,6.46,0,0,0-1.75.26,5.08,5.08,0,0,0-1.46.71,3.43,3.43,0,0,0-1,1.16,3,3,0,0,0-.38,1.49,2.76,2.76,0,0,0,.38,1.48,4.19,4.19,0,0,0,1,1.14,2.48,2.48,0,0,0,.66.4l.79.31L255,40a6.23,6.23,0,0,0,.89.06,6.73,6.73,0,0,0,.91-.06l.88-.16.76-.31a3.51,3.51,0,0,0,.69-.4,4.19,4.19,0,0,0,1-1.14A3.05,3.05,0,0,0,260.4,36.54Zm.51-14.49v-2.8h-4.67v2.8Z"/><path class="cls-1" d="M277.84,33.21V28.87h-7v-3h9c.85,0,1.69,0,2.54-.05s1.69-.1,2.55-.21a39.52,39.52,0,0,0,5-.77l.34,3c-1.31.28-2.69.51-4.13.68-.72.11-1.45.18-2.19.22l-2.25.13v4.38ZM287.9,18.54a4.85,4.85,0,0,1-.59,2.4,5.22,5.22,0,0,1-1.61,1.73,7.78,7.78,0,0,1-2.37,1.06,11.52,11.52,0,0,1-5.83,0,7.3,7.3,0,0,1-2.33-1.11,5.24,5.24,0,0,1-1.54-1.75,4.82,4.82,0,0,1-.56-2.32,5.12,5.12,0,0,1,.57-2.45,5.55,5.55,0,0,1,1.56-1.78,7.46,7.46,0,0,1,2.34-1.11,10.44,10.44,0,0,1,2.91-.39,10.23,10.23,0,0,1,3.08.44,7.27,7.27,0,0,1,2.36,1.19,5.25,5.25,0,0,1,1.49,1.8A5,5,0,0,1,287.9,18.54Zm8.47,24.16H280.19a5.84,5.84,0,0,1-3.28-.83,2.76,2.76,0,0,1-1.23-2.45V34.21h4.06v4.18c0,.6.33.9,1,.9h15.65Zm-12.3-24.19a2.25,2.25,0,0,0-1-2,4.51,4.51,0,0,0-2.58-.69,4.67,4.67,0,0,0-2.69.66,2.29,2.29,0,0,0-.95,2,2.15,2.15,0,0,0,1.05,1.94,4.82,4.82,0,0,0,2.59.66,4.45,4.45,0,0,0,1.39-.21,4,4,0,0,0,1.14-.56,2.88,2.88,0,0,0,.78-.82A1.83,1.83,0,0,0,284.07,18.51Zm1.56,11.58h6.44V12.94h4.06V35.59h-4.06V33h-6.44Z"/></g></g></svg>