<svg xmlns="http://www.w3.org/2000/svg" xmlns:xlink="http://www.w3.org/1999/xlink" viewBox="0 0 296.37 56.01"><defs><style>.cls-1{fill:none;}.cls-2{clip-path:url(#clip-path);}.cls-3{fill:#fff;}</style><clipPath id="clip-path" transform="translate(0)"><rect class="cls-1" width="296.37" height="56.01"/></clipPath></defs><title>logo-wh</title><g id="레이어_2" data-name="레이어 2"><g id="레이어_1-2" data-name="레이어 1"><g class="cls-2"><path class="cls-3" d="M167.09,51.24V54c0,.08,0,.12-.13.12H165.8V51.24l-2.48-3.9h1.41l1.75,2.76,1.72-2.77h1.41Z" transform="translate(0)"/><path class="cls-3" d="M175.28,51.67a.51.51,0,0,1-.15.38.5.5,0,0,1-.36.15h-2.9v.07a.74.74,0,0,0,.16.51,1,1,0,0,0,.41.27,2.28,2.28,0,0,0,.54.12l.57,0H174l.41,0,.38,0,.37,0v.76c0,.11-.06.17-.18.18a7.73,7.73,0,0,1-.79.08h-.71a3.52,3.52,0,0,1-2.12-.5,1.76,1.76,0,0,1-.66-1.49v-1a1.7,1.7,0,0,1,.19-.82,1.8,1.8,0,0,1,.48-.58,2,2,0,0,1,.66-.34,2.52,2.52,0,0,1,.74-.11h.42a2.92,2.92,0,0,1,.77.1,2.21,2.21,0,0,1,.68.31,1.6,1.6,0,0,1,.48.51,1.4,1.4,0,0,1,.18.72Zm-2.41-1.42a1.25,1.25,0,0,0-.74.19.78.78,0,0,0-.27.68v.14h2.22c.06,0,.1,0,.1-.08V51a.91.91,0,0,0-.07-.39.65.65,0,0,0-.2-.24.74.74,0,0,0-.3-.12,2,2,0,0,0-.37,0Z" transform="translate(0)"/><path class="cls-3" d="M178.77,54.11a2.21,2.21,0,0,1-.84-.15,1.77,1.77,0,0,1-.61-.41,1.73,1.73,0,0,1-.38-.6,2.11,2.11,0,0,1-.13-.75v-1a2.38,2.38,0,0,1,.13-.8,1.67,1.67,0,0,1,.37-.62,1.68,1.68,0,0,1,.61-.4,2.34,2.34,0,0,1,.85-.14h.71a2.3,2.3,0,0,1,.84.14,1.62,1.62,0,0,1,.61.4,1.71,1.71,0,0,1,.37.62,2.51,2.51,0,0,1,.12.81v.88a2.31,2.31,0,0,1-.15.85,1.71,1.71,0,0,1-.4.61,1.61,1.61,0,0,1-.6.37,2.33,2.33,0,0,1-.77.12Zm.49-.9a.93.93,0,0,0,.73-.28,1.13,1.13,0,0,0,.26-.79v-.85a1.45,1.45,0,0,0-.05-.39.93.93,0,0,0-.17-.34.83.83,0,0,0-.31-.24,1.09,1.09,0,0,0-.47-.09h-.34a.85.85,0,0,0-.71.28,1.2,1.2,0,0,0-.22.76v.92a1,1,0,0,0,.27.77.93.93,0,0,0,.69.27Z" transform="translate(0)"/><path class="cls-3" d="M189.36,54a.14.14,0,0,1-.16.16h-1V50.86a1.17,1.17,0,0,0,0-.34.35.35,0,0,0-.13-.19.49.49,0,0,0-.23-.08l-.34,0h-.65V54a.16.16,0,0,1,0,.1.12.12,0,0,1-.1,0h-1.07V50.23l-1.19,0c-.06,0-.09,0-.09.09v3.58a.18.18,0,0,1-.06.13.17.17,0,0,1-.13.06h-1V49.67q0-.36.34-.36l4.15,0a4.23,4.23,0,0,1,.88.08,1.13,1.13,0,0,1,.54.26,1,1,0,0,1,.27.47,3.08,3.08,0,0,1,.07.73Z" transform="translate(0)"/><path class="cls-3" d="M192.48,47.06V48.4a.4.4,0,0,1,0,.15l-.07.13-.48.79-.06.07a.12.12,0,0,1-.08,0h-.22c-.07,0-.11,0-.11-.11V47.06Z" transform="translate(0)"/><path class="cls-3" d="M198.23,50.34l-.57,0-.53,0-.46,0h-.35l-.3,0a1,1,0,0,0-.25.05.4.4,0,0,0-.17.12.31.31,0,0,0-.06.2.28.28,0,0,0,.06.17.54.54,0,0,0,.15.13.9.9,0,0,0,.21.1l.23.07,1.08.28a3.52,3.52,0,0,1,.51.19,1.81,1.81,0,0,1,.43.27,1.21,1.21,0,0,1,.29.37,1,1,0,0,1,.11.48,1.55,1.55,0,0,1-.13.69,1.07,1.07,0,0,1-.39.43,1.75,1.75,0,0,1-.63.23,4.66,4.66,0,0,1-.85.07h-1.08c-.35,0-.69,0-1-.09V53l1,.1a9.75,9.75,0,0,0,1,.05l.3,0a1.15,1.15,0,0,0,.29-.07.55.55,0,0,0,.21-.14.33.33,0,0,0,.08-.23.31.31,0,0,0-.15-.27,1.51,1.51,0,0,0-.44-.17l-1-.25a3.5,3.5,0,0,1-.59-.19,2.19,2.19,0,0,1-.48-.28,1.22,1.22,0,0,1-.32-.38,1,1,0,0,1-.12-.49,1.23,1.23,0,0,1,.44-1,2.41,2.41,0,0,1,1.45-.34l1,0,1,.06Z" transform="translate(0)"/><path class="cls-3" d="M203,49.52a2.19,2.19,0,0,1,.19-.95,2,2,0,0,1,.51-.67,2.26,2.26,0,0,1,.72-.41,3,3,0,0,1,.82-.16q.71,0,1.38,0c.45,0,.89,0,1.33.08v1q-.63-.07-1.26-.1a9,9,0,0,0-1.26,0,1.43,1.43,0,0,0-.5.13,1.24,1.24,0,0,0-.37.26,1,1,0,0,0-.22.35,1.17,1.17,0,0,0-.07.41v2.23a1.84,1.84,0,0,0,.08.57,1.26,1.26,0,0,0,.25.45,1.2,1.2,0,0,0,.44.31,1.78,1.78,0,0,0,.64.13c.38,0,.75,0,1.13,0s.75-.06,1.13-.11v.88a.1.1,0,0,1-.1.11q-.57.07-1.12.1a11.55,11.55,0,0,1-1.17,0,3.35,3.35,0,0,1-1.14-.22,2.4,2.4,0,0,1-.79-.5,2,2,0,0,1-.47-.72,2.55,2.55,0,0,1-.15-.88Z" transform="translate(0)"/><path class="cls-3" d="M213.48,53.74a.35.35,0,0,1-.09.24.3.3,0,0,1-.24.1l-2.41,0a2.61,2.61,0,0,1-.55-.05,1.1,1.1,0,0,1-.43-.19.89.89,0,0,1-.28-.37,1.46,1.46,0,0,1-.1-.58v-1a.86.86,0,0,1,.1-.42,1,1,0,0,1,.29-.33,1.39,1.39,0,0,1,.43-.21,2.12,2.12,0,0,1,.54-.08h.8l.78,0v-.19a.67.67,0,0,0-.05-.29.34.34,0,0,0-.17-.16,1,1,0,0,0-.32-.07l-.5,0h-.79c-.26,0-.51,0-.74.05v-.93l.7-.05.7,0h.72a3.41,3.41,0,0,1,.68.09,1.57,1.57,0,0,1,.55.24.8.8,0,0,1,.31.47,1.91,1.91,0,0,1,.06.41c0,.14,0,.28,0,.43Zm-1.16-1.85-.62,0h-.62a.82.82,0,0,0-.43.11.35.35,0,0,0-.13.29v.4q0,.5.49.5h.62l.62,0q.08,0,.08-.08Z" transform="translate(0)"/><path class="cls-3" d="M219.56,54a.16.16,0,0,1,0,.11.13.13,0,0,1-.1,0h-1v-3a.76.76,0,0,0-.26-.68,1.34,1.34,0,0,0-.74-.18l-.81,0s-.07,0-.07.06V54c0,.09,0,.14-.13.14h-1.08V49.58a.28.28,0,0,1,.07-.2.26.26,0,0,1,.2-.08l2.11,0a3.75,3.75,0,0,1,.9.09,1.39,1.39,0,0,1,.59.29,1.09,1.09,0,0,1,.32.53,2.87,2.87,0,0,1,.1.8Z" transform="translate(0)"/><path class="cls-3" d="M225.12,50.28l-.71,0h-.73a3,3,0,0,0-.64.06,1,1,0,0,0-.43.2.74.74,0,0,0-.24.36,1.85,1.85,0,0,0-.07.55V52a1.76,1.76,0,0,0,.08.57.76.76,0,0,0,.24.35,1,1,0,0,0,.41.18,3.16,3.16,0,0,0,.6.06h.74l.75,0v.78a.16.16,0,0,1-.17.17l-.77,0h-.75a3.14,3.14,0,0,1-1.12-.17,1.69,1.69,0,0,1-.69-.46,1.58,1.58,0,0,1-.34-.69,3.35,3.35,0,0,1-.08-.83v-.68a1.93,1.93,0,0,1,.59-1.51,2.64,2.64,0,0,1,1.76-.49h.8l.78,0Z" transform="translate(0)"/><path class="cls-3" d="M231.05,51.67a.51.51,0,0,1-.15.38.51.51,0,0,1-.36.15h-2.9v.07a.73.73,0,0,0,.16.51,1,1,0,0,0,.4.27,2.28,2.28,0,0,0,.54.12l.57,0h.47l.41,0,.38,0,.37,0v.76c0,.11-.06.17-.18.18a7.74,7.74,0,0,1-.79.08h-.71a3.52,3.52,0,0,1-2.12-.5,1.76,1.76,0,0,1-.66-1.49v-1a1.7,1.7,0,0,1,.19-.82,1.81,1.81,0,0,1,.48-.58,2,2,0,0,1,.66-.34,2.52,2.52,0,0,1,.74-.11h.42a2.92,2.92,0,0,1,.77.1,2.24,2.24,0,0,1,.68.31,1.6,1.6,0,0,1,.48.51,1.4,1.4,0,0,1,.18.72Zm-2.41-1.42a1.25,1.25,0,0,0-.74.19.78.78,0,0,0-.27.68v.14h2.22c.06,0,.1,0,.1-.08V51a.91.91,0,0,0-.07-.39.63.63,0,0,0-.2-.24.74.74,0,0,0-.3-.12,2,2,0,0,0-.37,0Z" transform="translate(0)"/><path class="cls-3" d="M235.85,50.24h-1.19a.75.75,0,0,0-.59.23.89.89,0,0,0-.2.62v2.8a.23.23,0,0,1-.07.17.22.22,0,0,1-.16.07h-1V51a1.55,1.55,0,0,1,1.69-1.72h1.49Z" transform="translate(0)"/><path class="cls-3" d="M245.59,54a.12.12,0,0,1,0,.1.18.18,0,0,1-.09,0H244.4v-3h-2.74V54c0,.09,0,.14-.15.14h-1.07V47.36h1.22v2.81h2.74V47.36h1.19Z" transform="translate(0)"/><path class="cls-3" d="M249.36,54.11a2.21,2.21,0,0,1-.84-.15,1.76,1.76,0,0,1-.61-.41,1.72,1.72,0,0,1-.38-.6,2.11,2.11,0,0,1-.13-.75v-1a2.41,2.41,0,0,1,.13-.8,1.63,1.63,0,0,1,1-1,2.34,2.34,0,0,1,.85-.14h.71a2.3,2.3,0,0,1,.84.14,1.61,1.61,0,0,1,.6.4,1.68,1.68,0,0,1,.37.62,2.48,2.48,0,0,1,.12.81v.88a2.31,2.31,0,0,1-.14.85,1.73,1.73,0,0,1-.4.61,1.61,1.61,0,0,1-.6.37,2.33,2.33,0,0,1-.77.12Zm.49-.9a.93.93,0,0,0,.73-.28,1.13,1.13,0,0,0,.26-.79v-.85a1.45,1.45,0,0,0-.05-.39,1,1,0,0,0-.17-.34.83.83,0,0,0-.31-.24,1.08,1.08,0,0,0-.47-.09h-.34a.86.86,0,0,0-.71.28,1.2,1.2,0,0,0-.22.76v.92a1,1,0,0,0,.27.77.93.93,0,0,0,.69.27Z" transform="translate(0)"/><path class="cls-3" d="M257.24,50.34l-.57,0-.53,0-.46,0h-.35l-.3,0a1,1,0,0,0-.25.05.4.4,0,0,0-.17.12.31.31,0,0,0-.06.2.28.28,0,0,0,.06.17.56.56,0,0,0,.15.13.9.9,0,0,0,.21.1l.23.07,1.08.28a3.52,3.52,0,0,1,.51.19,1.81,1.81,0,0,1,.43.27,1.19,1.19,0,0,1,.29.37,1,1,0,0,1,.11.48,1.55,1.55,0,0,1-.14.69,1.06,1.06,0,0,1-.39.43,1.76,1.76,0,0,1-.63.23,4.66,4.66,0,0,1-.85.07h-1.08q-.52,0-1-.09V53l1,.1a9.75,9.75,0,0,0,1,.05l.3,0a1.14,1.14,0,0,0,.29-.07.55.55,0,0,0,.21-.14.33.33,0,0,0,.08-.23.31.31,0,0,0-.15-.27,1.51,1.51,0,0,0-.44-.17l-1-.25a3.5,3.5,0,0,1-.59-.19,2.19,2.19,0,0,1-.48-.28,1.2,1.2,0,0,1-.32-.38,1,1,0,0,1-.12-.49,1.22,1.22,0,0,1,.44-1,2.41,2.41,0,0,1,1.45-.34l1,0,1,.06Z" transform="translate(0)"/><path class="cls-3" d="M263.39,52.44a2,2,0,0,1-.15.82,1.23,1.23,0,0,1-.42.51,1.72,1.72,0,0,1-.66.27,4.4,4.4,0,0,1-.85.07h-1.05v1.67c0,.15-.07.22-.2.22h-1V49.66a.32.32,0,0,1,.09-.22.31.31,0,0,1,.22-.1l1.12,0h1.11a2,2,0,0,1,1.37.41,1.67,1.67,0,0,1,.44,1.27Zm-2-2.2-1,0s-.07,0-.07.08v2.8h.94a2.54,2.54,0,0,0,.48,0A.69.69,0,0,0,262,53a.5.5,0,0,0,.16-.26,1.54,1.54,0,0,0,0-.42V51a.72.72,0,0,0-.21-.61,1.06,1.06,0,0,0-.63-.15" transform="translate(0)"/><path class="cls-3" d="M266.39,48.7h-1.31V47.36h1.31Zm0,5.25a.15.15,0,0,1-.17.17h-1V49.28h1.19Z" transform="translate(0)"/><path class="cls-3" d="M269.74,49.3h1.11v.84a.11.11,0,0,1-.12.12h-1v2.52c0,.16,0,.26.12.31a.73.73,0,0,0,.36.07h1V54a.15.15,0,0,1,0,.11.15.15,0,0,1-.11,0h-1.2q-1.29,0-1.29-1.18V50.26h-.73v-1h.73V47.88h1.21Z" transform="translate(0)"/><path class="cls-3" d="M276.49,53.74a.36.36,0,0,1-.09.24.3.3,0,0,1-.24.1l-2.41,0a2.62,2.62,0,0,1-.55-.05,1.1,1.1,0,0,1-.43-.19.89.89,0,0,1-.28-.37,1.47,1.47,0,0,1-.1-.58v-1a.87.87,0,0,1,.1-.42,1,1,0,0,1,.29-.33,1.38,1.38,0,0,1,.43-.21,2.11,2.11,0,0,1,.54-.08h.8l.78,0v-.19a.67.67,0,0,0-.05-.29.34.34,0,0,0-.17-.16,1,1,0,0,0-.32-.07l-.5,0h-.79q-.39,0-.74.05v-.93l.7-.05.7,0h.72a3.41,3.41,0,0,1,.68.09,1.57,1.57,0,0,1,.55.24.8.8,0,0,1,.31.47,1.91,1.91,0,0,1,.06.41c0,.14,0,.28,0,.43Zm-1.16-1.85-.62,0h-.62a.82.82,0,0,0-.43.11.36.36,0,0,0-.13.29v.4q0,.5.49.5h.62l.62,0q.08,0,.08-.08Z" transform="translate(0)"/><path class="cls-3" d="M279.52,53.89a.22.22,0,0,1-.06.15.17.17,0,0,1-.13.06h-1V47.36h1.23Z" transform="translate(0)"/><path class="cls-3" d="M162.91,20.82a6.67,6.67,0,0,1-.61,2.9A7.94,7.94,0,0,1,160.57,26,7.47,7.47,0,0,1,158,27.58a9.28,9.28,0,0,1-3.15.55,8.73,8.73,0,0,1-3.16-.55,7.14,7.14,0,0,1-2.55-1.51,6.63,6.63,0,0,1-1.73-2.32,6.2,6.2,0,0,1-.64-2.93,6.32,6.32,0,0,1,.64-2.93,6.71,6.71,0,0,1,1.73-2.28,8.42,8.42,0,0,1,2.55-1.51,9.28,9.28,0,0,1,3.16-.55,9.88,9.88,0,0,1,3.15.55,9.15,9.15,0,0,1,2.54,1.54,8.09,8.09,0,0,1,1.73,2.28,7,7,0,0,1,.61,2.9m-4.06,0a4,4,0,0,0-.31-1.54,4.43,4.43,0,0,0-.39-.66,4.06,4.06,0,0,0-.49-.56,3.66,3.66,0,0,0-.58-.45,4.93,4.93,0,0,0-.68-.35,4,4,0,0,0-1.52-.29,4.2,4.2,0,0,0-1.59.29,3.91,3.91,0,0,0-1.29.8,4.17,4.17,0,0,0-.85,1.22,4,4,0,0,0-.3,1.54,3.79,3.79,0,0,0,.3,1.58,3.26,3.26,0,0,0,.85,1.22,3.43,3.43,0,0,0,1.29.8,4.16,4.16,0,0,0,1.59.29,4,4,0,0,0,2.78-1.09,4.4,4.4,0,0,0,.88-1.22,3.81,3.81,0,0,0,.31-1.58m12.7,21.71H156.32A5.76,5.76,0,0,1,153,41.7a2.8,2.8,0,0,1-1.24-2.48V30.54h19.74Zm-4.06-3.41V33.95H155.87v4.27q0,.91,1,.91Zm-4.33-16.7h4.33V19h-4.33l0-3.15h4.37V12.94h4.06V28.67h-4.06V25.58h-4.33Z" transform="translate(0)"/><path class="cls-3" d="M175.71,26.71a17.54,17.54,0,0,0,5-3.63,9.12,9.12,0,0,0,2.13-4.18H177.3V15.48h6.16v-2.8h4.06v2.8h5.89v3.41h-5.59a3.26,3.26,0,0,0,.44,1.58,6.44,6.44,0,0,0,1.36,1.9,11.73,11.73,0,0,0,2.24,2,15,15,0,0,0,1.44.88q.79.43,1.74.85l-1.36,1.25-1.39,1.26a16.41,16.41,0,0,1-4.2-2.48A9.67,9.67,0,0,1,185.43,23a13.14,13.14,0,0,1-1.17,1.83,10.1,10.1,0,0,1-1.54,1.61,18.58,18.58,0,0,1-4.3,2.77q-.37-.29-.69-.6t-.66-.66a9,9,0,0,1-.7-.59c-.21-.2-.43-.42-.66-.66m25.16,9.83a5.69,5.69,0,0,1-.76,2.94,7.18,7.18,0,0,1-2,2.2A9.17,9.17,0,0,1,195.32,43a10.85,10.85,0,0,1-3.12.47A10.55,10.55,0,0,1,189,43a9,9,0,0,1-2.76-1.4,7.12,7.12,0,0,1-1.95-2.2,5.76,5.76,0,0,1-.73-2.89,6,6,0,0,1,.74-3,7,7,0,0,1,2-2.21A9,9,0,0,1,189.07,30a10.78,10.78,0,0,1,3.13-.46,10.37,10.37,0,0,1,3.23.51,9.29,9.29,0,0,1,2.78,1.43,7.16,7.16,0,0,1,1.93,2.21,5.79,5.79,0,0,1,.73,2.87m-4.06,0a2.79,2.79,0,0,0-.42-1.53,4.06,4.06,0,0,0-1.08-1.13,5,5,0,0,0-1.47-.71,5.58,5.58,0,0,0-1.59-.24,6.09,6.09,0,0,0-1.71.24,4.53,4.53,0,0,0-1.46.71,3.75,3.75,0,0,0-1,1.15,3.26,3.26,0,0,0,0,3.12,3.5,3.5,0,0,0,1.07,1.1,4.87,4.87,0,0,0,1.47.65,6.52,6.52,0,0,0,1.63.21,6,6,0,0,0,1.68-.24,5,5,0,0,0,1.47-.7,3.55,3.55,0,0,0,1-1.11,2.91,2.91,0,0,0,.39-1.5m4.33-13.85v6.15h-4.06V12.94h4.06v6.34h4.74v3.41Z" transform="translate(0)"/><path class="cls-3" d="M207.68,31.6V28.38H215V26.81A7.61,7.61,0,0,1,212.9,26a6.91,6.91,0,0,1-1.64-1.27,5.25,5.25,0,0,1-1.45-3.67,5.1,5.1,0,0,1,.85-2.86h-2.3V15.29h6.47V12.46H219v2.83h6.43v2.93h-2.34a5,5,0,0,1,.89,2.86,5.1,5.1,0,0,1-.39,2,5.92,5.92,0,0,1-1.06,1.67A6.13,6.13,0,0,1,220.93,26a7.77,7.77,0,0,1-2,.77v1.61a41.47,41.47,0,0,0,5.23-.34,23.33,23.33,0,0,0,4-.92V12.94h4.06v8.24H237v3.41H232.3V34.5h-4.06V30.18a19.64,19.64,0,0,1-2.81.72q-1.49.27-3.07.43t-3.17.21q-1.59,0-3.11,0Zm24.89,10.78H216.92a5.78,5.78,0,0,1-3.27-.83,2.76,2.76,0,0,1-1.24-2.45V33.53h4.06v4.54q0,.9,1,.9h15.1ZM219.9,21.08a2.4,2.4,0,0,0-.83-1.93,3.25,3.25,0,0,0-2.18-.71,3,3,0,0,0-2.24.77,2.53,2.53,0,0,0-.78,1.87,2.41,2.41,0,0,0,.88,1.91,3.16,3.16,0,0,0,2.13.76,3.05,3.05,0,0,0,2.22-.77,2.54,2.54,0,0,0,.8-1.9" transform="translate(0)"/><path class="cls-3" d="M247.3,27.68a7.63,7.63,0,0,1-4.64-1.32,4.49,4.49,0,0,1-1.79-3.86V13.81h4.06v4.05h7.25V13.81h4.06v2.28h4.67V12.94H265V28.83h-4.06V25.2h-4.67v2.48Zm4.88-6.53h-7.25v.64a3.47,3.47,0,0,0,.13,1,2.2,2.2,0,0,0,.46.84,2.12,2.12,0,0,0,.88.58,4.15,4.15,0,0,0,1.44.21h4.33Zm12.29,15.39a6.28,6.28,0,0,1-.68,2.86A8.36,8.36,0,0,1,262,41.61,11.16,11.16,0,0,1,259.18,43a11.86,11.86,0,0,1-3.39.48,11,11,0,0,1-3.32-.48,8.76,8.76,0,0,1-2.71-1.38,6.77,6.77,0,0,1-1.86-2.21,5.86,5.86,0,0,1-.68-2.89,6.48,6.48,0,0,1,.68-3,6.79,6.79,0,0,1,1.86-2.22A8.8,8.8,0,0,1,252.48,30a11,11,0,0,1,3.32-.48,11.9,11.9,0,0,1,3.39.48,10.62,10.62,0,0,1,1.42.61,12.21,12.21,0,0,1,1.32.8,7,7,0,0,1,1.86,2.22,6.82,6.82,0,0,1,.68,2.92m-4.06,0a3.37,3.37,0,0,0-.34-1.52,5.88,5.88,0,0,0-1-1.13,3.42,3.42,0,0,0-.67-.39l-.78-.32a7.06,7.06,0,0,0-1.79-.26,6.43,6.43,0,0,0-1.75.26,5.16,5.16,0,0,0-1.45.71,3.56,3.56,0,0,0-1,1.16,3,3,0,0,0-.37,1.49,2.82,2.82,0,0,0,.37,1.49,4.24,4.24,0,0,0,1,1.13,2.47,2.47,0,0,0,.66.4l.79.31c.27.06.54.12.83.16a6,6,0,0,0,.89.06,6.4,6.4,0,0,0,.91-.06q.44-.07.88-.16l.76-.31a3.09,3.09,0,0,0,.69-.4,4.11,4.11,0,0,0,1-1.13,3,3,0,0,0,.34-1.49m.51-17.29h-4.67V22h4.67Z" transform="translate(0)"/><path class="cls-3" d="M277.84,33.21V28.87h-7v-3h9q1.28,0,2.54,0t2.55-.21a40.55,40.55,0,0,0,5-.77l.34,3q-2,.42-4.13.67-1.08.16-2.18.23l-2.25.13v4.38ZM287.9,18.54a4.78,4.78,0,0,1-.59,2.4,5.15,5.15,0,0,1-1.61,1.74,7.86,7.86,0,0,1-2.37,1.06,10.91,10.91,0,0,1-2.88.37,10.68,10.68,0,0,1-2.95-.39,7.22,7.22,0,0,1-2.34-1.11,5.3,5.3,0,0,1-1.54-1.75,4.78,4.78,0,0,1-.56-2.32,5,5,0,0,1,.58-2.44,5.37,5.37,0,0,1,1.56-1.78,7.22,7.22,0,0,1,2.34-1.11,10.55,10.55,0,0,1,2.91-.39,10.27,10.27,0,0,1,3.08.43,7.35,7.35,0,0,1,2.35,1.19,5.29,5.29,0,0,1,1.49,1.8,5.07,5.07,0,0,1,.52,2.3m8.46,24.16H280.19a5.8,5.8,0,0,1-3.27-.83,2.76,2.76,0,0,1-1.24-2.45V34.21h4.06v4.18q0,.9,1,.9h15.64ZM284.07,18.51a2.25,2.25,0,0,0-1-2,4.51,4.51,0,0,0-2.58-.69,4.69,4.69,0,0,0-2.69.66,2.28,2.28,0,0,0-1,2,2.15,2.15,0,0,0,1.05,1.95,4.78,4.78,0,0,0,2.59.66,4.48,4.48,0,0,0,1.39-.21,4.07,4.07,0,0,0,1.14-.56,2.88,2.88,0,0,0,.78-.82,1.89,1.89,0,0,0,.29-1m1.56,11.58h6.43V12.94h4.06V35.59h-4.06V33h-6.43Z" transform="translate(0)"/><path class="cls-3" d="M70.73,37.36h0Z" transform="translate(0)"/><path class="cls-3" d="M70.79,37.36h-8.1a7.92,7.92,0,1,1,0-15.83h15.4V11.7H62.69a17.74,17.74,0,1,0,0,35.47H79.59v0h-.33c0-9.44-7.38-9.8-8.47-9.81" transform="translate(0)"/><path class="cls-3" d="M29,20.46h0v7.37a9.59,9.59,0,1,1-19.18,0v-16H0v16a19.41,19.41,0,1,0,38.82,0v-16c-10.2,0-9.8,8.61-9.8,8.61" transform="translate(0)"/><path class="cls-3" d="M103.89,11.78A19.43,19.43,0,0,0,84.48,31.19v16H94.3v-16a9.59,9.59,0,1,1,19.18,0v7.37h0s-.39,8.61,9.8,8.61v-16a19.43,19.43,0,0,0-19.41-19.41" transform="translate(0)"/><path class="cls-3" d="M89.57,11.85a5.93,5.93,0,1,0-5.93-5.93,5.93,5.93,0,0,0,5.93,5.93" transform="translate(0)"/><path class="cls-3" d="M36.67,44.11A5.93,5.93,0,1,0,42.6,50a5.93,5.93,0,0,0-5.93-5.93" transform="translate(0)"/><path class="cls-3" d="M70.73,37.36h0" transform="translate(0)"/><path class="cls-3" d="M162.91,20.82a6.67,6.67,0,0,1-.61,2.9A7.94,7.94,0,0,1,160.57,26,7.47,7.47,0,0,1,158,27.58a9.28,9.28,0,0,1-3.15.55,8.73,8.73,0,0,1-3.16-.55,7.14,7.14,0,0,1-2.55-1.51,6.63,6.63,0,0,1-1.73-2.32,6.2,6.2,0,0,1-.64-2.93,6.32,6.32,0,0,1,.64-2.93,6.71,6.71,0,0,1,1.73-2.28,8.42,8.42,0,0,1,2.55-1.51,9.28,9.28,0,0,1,3.16-.55,9.88,9.88,0,0,1,3.15.55,9.15,9.15,0,0,1,2.54,1.54,8.09,8.09,0,0,1,1.73,2.28,7,7,0,0,1,.61,2.9m-4.06,0a4,4,0,0,0-.31-1.54,4.43,4.43,0,0,0-.39-.66,4.06,4.06,0,0,0-.49-.56,3.66,3.66,0,0,0-.58-.45,4.93,4.93,0,0,0-.68-.35,4,4,0,0,0-1.52-.29,4.2,4.2,0,0,0-1.59.29,3.91,3.91,0,0,0-1.29.8,4.17,4.17,0,0,0-.85,1.22,4,4,0,0,0-.3,1.54,3.79,3.79,0,0,0,.3,1.58,3.26,3.26,0,0,0,.85,1.22,3.43,3.43,0,0,0,1.29.8,4.16,4.16,0,0,0,1.59.29,4,4,0,0,0,2.78-1.09,4.4,4.4,0,0,0,.88-1.22,3.81,3.81,0,0,0,.31-1.58m12.7,21.71H156.32A5.76,5.76,0,0,1,153,41.7a2.8,2.8,0,0,1-1.24-2.48V30.54h19.74Zm-4.06-3.41V33.95H155.87v4.27q0,.91,1,.91Zm-4.33-16.7h4.33V19h-4.33l0-3.15h4.37V12.94h4.06V28.67h-4.06V25.58h-4.33Z" transform="translate(0)"/><path class="cls-3" d="M175.71,26.71a17.54,17.54,0,0,0,5-3.63,9.12,9.12,0,0,0,2.13-4.18H177.3V15.48h6.16v-2.8h4.06v2.8h5.89v3.41h-5.59a3.26,3.26,0,0,0,.44,1.58,6.44,6.44,0,0,0,1.36,1.9,11.73,11.73,0,0,0,2.24,2,15,15,0,0,0,1.44.88q.79.43,1.74.85l-1.36,1.25-1.39,1.26a16.41,16.41,0,0,1-4.2-2.48A9.67,9.67,0,0,1,185.43,23a13.14,13.14,0,0,1-1.17,1.83,10.1,10.1,0,0,1-1.54,1.61,18.58,18.58,0,0,1-4.3,2.77q-.37-.29-.69-.6t-.66-.66a9,9,0,0,1-.7-.59c-.21-.2-.43-.42-.66-.66m25.16,9.83a5.69,5.69,0,0,1-.76,2.94,7.18,7.18,0,0,1-2,2.2A9.17,9.17,0,0,1,195.32,43a10.85,10.85,0,0,1-3.12.47A10.55,10.55,0,0,1,189,43a9,9,0,0,1-2.76-1.4,7.12,7.12,0,0,1-1.95-2.2,5.76,5.76,0,0,1-.73-2.89,6,6,0,0,1,.74-3,7,7,0,0,1,2-2.21A9,9,0,0,1,189.07,30a10.78,10.78,0,0,1,3.13-.46,10.37,10.37,0,0,1,3.23.51,9.29,9.29,0,0,1,2.78,1.43,7.16,7.16,0,0,1,1.93,2.21,5.79,5.79,0,0,1,.73,2.87m-4.06,0a2.79,2.79,0,0,0-.42-1.53,4.06,4.06,0,0,0-1.08-1.13,5,5,0,0,0-1.47-.71,5.58,5.58,0,0,0-1.59-.24,6.09,6.09,0,0,0-1.71.24,4.53,4.53,0,0,0-1.46.71,3.75,3.75,0,0,0-1,1.15,3.26,3.26,0,0,0,0,3.12,3.5,3.5,0,0,0,1.07,1.1,4.87,4.87,0,0,0,1.47.65,6.52,6.52,0,0,0,1.63.21,6,6,0,0,0,1.68-.24,5,5,0,0,0,1.47-.7,3.55,3.55,0,0,0,1-1.11,2.91,2.91,0,0,0,.39-1.5m4.33-13.85v6.15h-4.06V12.94h4.06v6.34h4.74v3.41Z" transform="translate(0)"/><path class="cls-3" d="M207.68,31.6V28.38H215V26.81A7.61,7.61,0,0,1,212.9,26a6.91,6.91,0,0,1-1.64-1.27,5.25,5.25,0,0,1-1.45-3.67,5.1,5.1,0,0,1,.85-2.86h-2.3V15.29h6.47V12.46H219v2.83h6.43v2.93h-2.34a5,5,0,0,1,.89,2.86,5.1,5.1,0,0,1-.39,2,5.92,5.92,0,0,1-1.06,1.67A6.13,6.13,0,0,1,220.93,26a7.77,7.77,0,0,1-2,.77v1.61a41.47,41.47,0,0,0,5.23-.34,23.33,23.33,0,0,0,4-.92V12.94h4.06v8.24H237v3.41H232.3V34.5h-4.06V30.18a19.64,19.64,0,0,1-2.81.72q-1.49.27-3.07.43t-3.17.21q-1.59,0-3.11,0Zm24.89,10.78H216.92a5.78,5.78,0,0,1-3.27-.83,2.76,2.76,0,0,1-1.24-2.45V33.53h4.06v4.54q0,.9,1,.9h15.1ZM219.9,21.08a2.4,2.4,0,0,0-.83-1.93,3.25,3.25,0,0,0-2.18-.71,3,3,0,0,0-2.24.77,2.53,2.53,0,0,0-.78,1.87,2.41,2.41,0,0,0,.88,1.91,3.16,3.16,0,0,0,2.13.76,3.05,3.05,0,0,0,2.22-.77,2.54,2.54,0,0,0,.8-1.9" transform="translate(0)"/><path class="cls-3" d="M247.3,27.68a7.63,7.63,0,0,1-4.64-1.32,4.49,4.49,0,0,1-1.79-3.86V13.81h4.06v4.05h7.25V13.81h4.06v2.28h4.67V12.94H265V28.83h-4.06V25.2h-4.67v2.48Zm4.88-6.53h-7.25v.64a3.47,3.47,0,0,0,.13,1,2.2,2.2,0,0,0,.46.84,2.12,2.12,0,0,0,.88.58,4.15,4.15,0,0,0,1.44.21h4.33Zm12.29,15.39a6.28,6.28,0,0,1-.68,2.86A8.36,8.36,0,0,1,262,41.61,11.16,11.16,0,0,1,259.18,43a11.86,11.86,0,0,1-3.39.48,11,11,0,0,1-3.32-.48,8.76,8.76,0,0,1-2.71-1.38,6.77,6.77,0,0,1-1.86-2.21,5.86,5.86,0,0,1-.68-2.89,6.48,6.48,0,0,1,.68-3,6.79,6.79,0,0,1,1.86-2.22A8.8,8.8,0,0,1,252.48,30a11,11,0,0,1,3.32-.48,11.9,11.9,0,0,1,3.39.48,10.62,10.62,0,0,1,1.42.61,12.21,12.21,0,0,1,1.32.8,7,7,0,0,1,1.86,2.22,6.82,6.82,0,0,1,.68,2.92m-4.06,0a3.37,3.37,0,0,0-.34-1.52,5.88,5.88,0,0,0-1-1.13,3.42,3.42,0,0,0-.67-.39l-.78-.32a7.06,7.06,0,0,0-1.79-.26,6.43,6.43,0,0,0-1.75.26,5.16,5.16,0,0,0-1.45.71,3.56,3.56,0,0,0-1,1.16,3,3,0,0,0-.37,1.49,2.82,2.82,0,0,0,.37,1.49,4.24,4.24,0,0,0,1,1.13,2.47,2.47,0,0,0,.66.4l.79.31c.27.06.54.12.83.16a6,6,0,0,0,.89.06,6.4,6.4,0,0,0,.91-.06q.44-.07.88-.16l.76-.31a3.09,3.09,0,0,0,.69-.4,4.11,4.11,0,0,0,1-1.13,3,3,0,0,0,.34-1.49m.51-17.29h-4.67V22h4.67Z" transform="translate(0)"/><path class="cls-3" d="M277.84,33.21V28.87h-7v-3h9q1.28,0,2.54,0t2.55-.21a40.55,40.55,0,0,0,5-.77l.34,3q-2,.42-4.13.67-1.08.16-2.18.23l-2.25.13v4.38ZM287.9,18.54a4.78,4.78,0,0,1-.59,2.4,5.15,5.15,0,0,1-1.61,1.74,7.86,7.86,0,0,1-2.37,1.06,10.91,10.91,0,0,1-2.88.37,10.68,10.68,0,0,1-2.95-.39,7.22,7.22,0,0,1-2.34-1.11,5.3,5.3,0,0,1-1.54-1.75,4.78,4.78,0,0,1-.56-2.32,5,5,0,0,1,.58-2.44,5.37,5.37,0,0,1,1.56-1.78,7.22,7.22,0,0,1,2.34-1.11,10.55,10.55,0,0,1,2.91-.39,10.27,10.27,0,0,1,3.08.43,7.35,7.35,0,0,1,2.35,1.19,5.29,5.29,0,0,1,1.49,1.8,5.07,5.07,0,0,1,.52,2.3m8.46,24.16H280.19a5.8,5.8,0,0,1-3.27-.83,2.76,2.76,0,0,1-1.24-2.45V34.21h4.06v4.18q0,.9,1,.9h15.64ZM284.07,18.51a2.25,2.25,0,0,0-1-2,4.51,4.51,0,0,0-2.58-.69,4.69,4.69,0,0,0-2.69.66,2.28,2.28,0,0,0-1,2,2.15,2.15,0,0,0,1.05,1.95,4.78,4.78,0,0,0,2.59.66,4.48,4.48,0,0,0,1.39-.21,4.07,4.07,0,0,0,1.14-.56,2.88,2.88,0,0,0,.78-.82,1.89,1.89,0,0,0,.29-1m1.56,11.58h6.43V12.94h4.06V35.59h-4.06V33h-6.43Z" transform="translate(0)"/></g></g></g></svg>