<svg xmlns="http://www.w3.org/2000/svg" xmlns:xlink="http://www.w3.org/1999/xlink" viewBox="0 0 271.69 76.5"><defs><style>.cls-1{fill:#fff;}.cls-2{fill:#00348c;}.cls-3{fill:url(#무제_그라디언트_2);}.cls-4{fill:#008ccf;}</style><radialGradient id="무제_그라디언트_2" cx="4744.17" cy="259.64" r="61.07" gradientTransform="matrix(0.22, 0, 0, -0.22, -932.07, 87.56)" gradientUnits="userSpaceOnUse"><stop offset="0" stop-color="#82c1ea"/><stop offset="0.11" stop-color="#49aade"/><stop offset="0.22" stop-color="#1594d3"/><stop offset="0.28" stop-color="#008ccf"/><stop offset="1" stop-color="#00348c"/></radialGradient></defs><g id="레이어_2" data-name="레이어 2"><g id="레이어_1-2" data-name="레이어 1"><rect class="cls-1" width="271.69" height="76.5"/><g id="레이어_2-2" data-name="레이어 2"><g id="Layer_1" data-name="Layer 1"><path class="cls-2" d="M202.15,32.42v1.77H200.4V32.9h-2.19v1.83h-2.77V32.9h-2.19v5.84a.64.64,0,0,0,.65.62h6.53V37.9h1.75v2.15h2.18V32.42h-2.21Zm-4,5.5h-2.78V36.15h2.78Zm4-1.46H200.4V35.6h1.75Z"/><path class="cls-2" d="M200.2,40a3.52,3.52,0,0,0-3.65,3.33,3.68,3.68,0,0,0,7.34,0A3.52,3.52,0,0,0,200.2,40Zm0,5.19a1.74,1.74,0,0,1-1.61-1.86,1.63,1.63,0,0,1,3.22-.48,1.93,1.93,0,0,1,0,.48,1.75,1.75,0,0,1-1.62,1.86Z"/><path class="cls-2" d="M134.8,32.42V36.7h-2.13v1.46h2.13v8.4H137V32.42Z"/><path class="cls-2" d="M179.21,36.08h-2.13V32.43h-2.19v7.91h2.19V37.49h2.13Z"/><path class="cls-2" d="M188.58,41h2.19V33.22H181v1.45h7.58Z"/><path class="cls-2" d="M187.69,38.35H185.5v5h-.83v-5h-2.19v5h-3.4V44.8h13.13V43.38H187.7Z"/><path class="cls-2" d="M168.51,41.31v1.46h6.35v3.82h2.19V41.31Z"/><path class="cls-2" d="M173.4,37.05a3,3,0,0,0-.72-1.94h1.62V33.68H171v-1.8h-2.19v1.8h-3.35v1.46H167a3.06,3.06,0,0,0-.73,2,3.59,3.59,0,0,0,7.15,0Zm-5.05,0a1.52,1.52,0,0,1,3-.75,1.37,1.37,0,0,1,0,.75,1.52,1.52,0,1,1-3,.76A1.4,1.4,0,0,1,168.35,37.05Z"/><path class="cls-2" d="M130.79,36.7h0a11.27,11.27,0,0,1-.31-2.51V33h-2.35v1.23a11.26,11.26,0,0,1-.3,2.51,9.56,9.56,0,0,1-3.21,4.67l-.08.06,1.09,1,.06-.05a12.14,12.14,0,0,0,3.65-3.83A11.92,11.92,0,0,0,133,42.37l0,.05,1-1.05-.08-.06A9.51,9.51,0,0,1,130.79,36.7Z"/><path class="cls-2" d="M161.62,32.42V36.7H161V32.42h-2.19V39a10.11,10.11,0,0,1-3.73.65h-.23V34.32h2.92V32.9h-5.11v7.52a.63.63,0,0,0,.64.61h1.8a10.7,10.7,0,0,0,3.72-.64v6.16H161V38.12h.66v8.44h2.19V32.42Z"/><path class="cls-2" d="M138.26,38.61V40h5.56v.9h-3.75v1.46h7.26v.68h-7.26V46a.63.63,0,0,0,.64.62h9.07V45.13h-7.3v-.68h7.3V40.93H146V40h5.55V38.61Z"/><path class="cls-2" d="M144.9,38.27c2.34,0,4.25-1.5,4.25-3.34s-1.91-3.34-4.25-3.34-4.26,1.49-4.26,3.34S142.55,38.27,144.9,38.27Zm0-5.31a1.92,1.92,0,0,1,1.84,2,1.85,1.85,0,0,1-3.65.57,1.82,1.82,0,0,1,0-.57A1.9,1.9,0,0,1,144.9,33Z"/><path class="cls-2" d="M215.85,32.42v6.44h-9.76v1.41H209v1.35h2.19V40.27h4.62v.58h-2.07v1.42h2.07v1.29H218V32.42Z"/><path class="cls-2" d="M211.25,42.25h-2.19V46a.63.63,0,0,0,.65.61h8.38V45.14h-6.84Z"/><path class="cls-2" d="M210.63,38.57a3.51,3.51,0,0,0,3.65-3.32,3.67,3.67,0,1,0-7.34,0A3.5,3.5,0,0,0,210.63,38.57Zm0-5.22a1.75,1.75,0,0,1,1.53,1.9,1.57,1.57,0,1,1-3.07.67,1.89,1.89,0,0,1,0-.67,1.76,1.76,0,0,1,1.54-1.91Z"/><path class="cls-3" d="M108,29.69h9.91v7.49a6.72,6.72,0,0,1-5,6.35,6.75,6.75,0,0,1-5-6.35Z"/><path class="cls-1" d="M110.57,40.68,112,39.19l1.46,1.45h1.94V36.4h1.28V34.84h-1.24v-.46h1.28V33h-1.32V31.15h-4.1v1.39h2.5v6.14l-1.78-1.76-2.62,2.62Z"/><path class="cls-2" d="M91.5,32.55h-3v9.07c0,2.33-.4,3.51-2.55,3.51s-2.48-1.29-2.48-3.51V32.55H80.34v9.22c0,2.61.67,5,5.6,5s5.67-2.42,5.67-5V32.55Z"/><polygon class="cls-4" points="101.97 46.58 105.1 46.58 105.1 32.55 104.99 32.55 101.97 32.55 101.97 38.36 96.87 38.36 96.87 32.55 93.75 32.55 93.75 46.58 96.87 46.58 96.87 40.3 101.97 40.3 101.97 46.58"/><path class="cls-2" d="M75.26,32.55V42l-5.47-9.42H66.45v14h2.92V36.66l5.75,9.92h3.06v-14Z"/><path class="cls-2" d="M60.17,38c-1.8-.78-3.34-1.45-3.34-2.59,0-.78.87-1.32,2.19-1.32a14.11,14.11,0,0,1,4.75,1l.17.08V32.76h-.06a31.34,31.34,0,0,0-4.44-.43c-3.65,0-5.84,1.37-5.84,3.67,0,2.45,2.42,3.53,4.55,4.5,1.76.8,3.42,1.56,3.42,2.92S59.32,45,59.06,45a11,11,0,0,1-5-1.4l-.18-.1v2.7l.21.05a19.87,19.87,0,0,0,4.47.6c4.23,0,6.46-1.46,6.46-4.21C65,40.14,62.42,39,60.17,38Z"/></g></g></g></g></svg>