<svg xmlns="http://www.w3.org/2000/svg" viewBox="0 0 271.69 76.5"><defs><style>.cls-1{fill:#fff;}.cls-2{fill:#00205c;}.cls-3{fill:#54565a;}</style></defs><g id="레이어_2" data-name="레이어 2"><g id="레이어_1-2" data-name="레이어 1"><rect class="cls-1" width="271.69" height="76.5"/><g id="레이어_2-2" data-name="레이어 2"><g id="Layer_1" data-name="Layer 1"><path class="cls-1" d="M75.51,38.25A13.53,13.53,0,1,0,89,24.72h0A13.55,13.55,0,0,0,75.51,38.25Z"/><path class="cls-2" d="M75.91,38.25A13.14,13.14,0,1,1,89,51.39,13.14,13.14,0,0,1,75.91,38.25Z"/><path class="cls-1" d="M89,47.82a9.57,9.57,0,1,1,9.57-9.57h0A9.57,9.57,0,0,1,89,47.82Z"/><path class="cls-1" d="M78,41.36a.37.37,0,1,0,.37-.37A.38.38,0,0,0,78,41.36Z"/><path class="cls-1" d="M100.25,41.41a.39.39,0,0,1-.38.38.38.38,0,1,1,.38-.38Z"/><path class="cls-1" d="M78.5,33.85a.88.88,0,0,0-.71,0,1.07,1.07,0,0,0-.5.64,1.08,1.08,0,0,0,0,.81,1,1,0,0,0,.59.48,1,1,0,0,0,1.22-.6s0,0,0-.07a1,1,0,0,0,0-.8A1,1,0,0,0,78.5,33.85ZM79,35a.8.8,0,0,1-1,.46l-.07,0c-.62-.2-.59-.58-.54-.78a.64.64,0,0,1,.32-.38,1.09,1.09,0,0,1,1.27.35A.5.5,0,0,1,79,35Z"/><path class="cls-1" d="M81.1,31.45l-.35-.33.07-.07.16.11a.32.32,0,0,0,.39-.08.3.3,0,0,0,0-.41.45.45,0,0,0-.43-.08h-.15a.78.78,0,0,1-.69-.15.53.53,0,0,1,.06-.76h0c.2-.21.31-.23.31-.23l.3.28-.07.07a.31.31,0,0,0-.43,0,0,0,0,0,1,0,0,.26.26,0,0,0,0,.36h0c.07.06.15.08.42,0h.08a.83.83,0,0,1,.76.14.53.53,0,0,1,.15.49.72.72,0,0,1-.2.36A.76.76,0,0,1,81.1,31.45Z"/><path class="cls-1" d="M97.32,31.89l.39-.27.06.08-.13.13a.3.3,0,0,0,0,.4.27.27,0,0,0,.37.12h0c.1-.06.16-.16.17-.4V31.8a.78.78,0,0,1,.29-.65.55.55,0,0,1,.74.21.83.83,0,0,1,.16.36l-.34.23L99,31.87a.39.39,0,0,0,.14-.17.31.31,0,0,0,0-.28.24.24,0,0,0-.34-.09c-.11.08-.13.14-.14.4v.09a.76.76,0,0,1-.3.7.56.56,0,0,1-.5.06.7.7,0,0,1-.31-.28A.71.71,0,0,1,97.32,31.89Z"/><path class="cls-1" d="M82.54,29c.09-.07.13,0,.2.07l.07-.06-.31-.41-.07.05c.08.11.11.15,0,.22l-.28.23-.39-.54.29-.22c.13-.1.2,0,.27.07l.08-.06-.24-.3-1,.73,0,.07c.07-.05.19-.16.3,0l.82,1.09c.12.17.06.19-.06.28l.06.07,1-.74-.23-.33-.07,0c.11.16.08.25,0,.32l-.32.24-.48-.61h0Z"/><path class="cls-1" d="M95.62,29.07c.1.08.08.11,0,.22l.08.05.28-.43-.07-.05c-.07.11-.1.14-.2.07l-.31-.2.36-.55.3.2c.14.09.09.18,0,.28l.07.05.22-.32-1-.66,0,.07c.07.05.21.13.11.27s-.76,1.14-.76,1.14c-.11.17-.16.13-.28,0l-.06.09,1,.69.23-.35-.07-.07c-.11.16-.21.18-.31.11l-.33-.22.43-.64h0Z"/><path class="cls-1" d="M83.59,27.49c0-.11,0-.14.13-.21l-.06-.07-.69.35,0,.08s.17-.13.25,0,.67,1.31.67,1.31,0,.14-.13.21l0,.08.75-.39,0-.07c-.12,0-.24.14-.31,0Z"/><path class="cls-1" d="M87.6,27l-.13-.76c0-.12,0-.14.18-.16V26l-.67.13v.09s.21-.07.24.08.16.8.16.8a.83.83,0,0,1,0,.62.51.51,0,0,1-.61.16c-.11-.06-.22-.17-.3-.55l-.2-.84c0-.12,0-.14.19-.17v-.09l-.76.16v.08s.2-.07.23.09.17.85.17.85a.71.71,0,0,0,.93.67.7.7,0,0,0,.48-.28A.92.92,0,0,0,87.6,27Z"/><path class="cls-1" d="M92,26.56c0-.12.09-.11.24-.08V26.4l-.76-.18v.09s.21,0,.17.17-.33,1.44-.33,1.44-.09.11-.24.07v.09l.82.19,0-.09c-.13,0-.28,0-.24-.18Z"/><path class="cls-1" d="M100,33.14c.11,0,.14,0,.21.13l.08,0-.35-.7-.08,0s.12.18,0,.25l-1.32.65c-.11.05-.14,0-.2-.14l-.09,0,.37.76.08,0c-.06-.12-.13-.23,0-.3Z"/><path class="cls-1" d="M100.59,34l-.39.06v.1c.13,0,.23,0,.28.13a2.69,2.69,0,0,0,.1.36l-1.46.43c-.12,0-.14,0-.18-.17l-.08,0,.23.8.09,0c0-.13-.1-.26,0-.3l1.46-.43.11.36c0,.16,0,.2-.15.26v.1l.42-.16Z"/><path class="cls-1" d="M97.93,29.93a.85.85,0,0,0-.26-.4L97.13,29l0,.09s.17.12.06.24-1,1.05-1,1.05-.14,0-.24-.07l-.07.07.59.59.07-.06c-.09-.09-.2-.18-.1-.28l.39-.4.16.16-.07.42a1.46,1.46,0,0,0,0,.51.53.53,0,0,0,.16.23l.18.18.06-.06,0,0a.55.55,0,0,1-.07-.31c0-.23,0-.47.06-.7v-.12a.72.72,0,0,0,.61-.17A.42.42,0,0,0,97.93,29.93Zm-.44.23a.44.44,0,0,1-.35.16.38.38,0,0,1-.15-.09l-.12-.13.58-.58.08.08a.38.38,0,0,1,0,.53l0,0Z"/><path class="cls-1" d="M78.06,37a.59.59,0,0,1-.23-.05,7.34,7.34,0,0,1-.73-.55.35.35,0,0,1-.11-.13v-.17h-.08l-.06.63h.09v-.07s0,0,0,0a.31.31,0,0,1,.12.05s.6.4.6.4l-.73.34h-.08v-.06h-.08l-.07.71h.09a.28.28,0,0,1,0-.15.46.46,0,0,1,.17-.17c.13-.08.7-.36.73-.37a.54.54,0,0,1,.25,0l.42,0c.16,0,.16.1.14.22h.09l.1-.82h-.11c0,.14,0,.27-.19.26Z"/><path class="cls-1" d="M100,37.41a.45.45,0,0,1,.23,0,7.65,7.65,0,0,1,.82.38.49.49,0,0,1,.13.12.3.3,0,0,1,0,.1v.07h.09l-.06-.62h-.09v.06a0,0,0,0,1,0,0H101l-.67-.29.66-.46.07,0h0v.06h.09l0-.69h-.09a.38.38,0,0,1,0,.15.56.56,0,0,1-.16.18c-.11.1-.63.49-.66.5a.49.49,0,0,1-.24.08l-.42,0c-.15,0-.16-.07-.18-.19h-.08l.11.87h.07c0-.14,0-.27.15-.29Z"/><path class="cls-1" d="M80.62,32.14l-.07.1-1.83.41.89.55c.19.11.26,0,.32-.15l.08.06-.37.6-.08-.05c.06-.09.13-.19,0-.3l-1.38-.84.06-.1,1.86-.4-.93-.58c-.16-.11-.24,0-.29.12l-.06,0,.34-.55.08.05c-.06.08-.12.16,0,.27Z"/><path class="cls-1" d="M90.25,28h-.12L88.9,26.53l-.06,1c0,.23.14.21.26.22v.09l-.7,0v-.09c.12,0,.23,0,.24-.19l.09-1.63h.12c.21.24,1.2,1.41,1.24,1.44s0-.89.06-1.09-.13-.19-.23-.2v0l.65,0v.09c-.11,0-.21,0-.22.17Z"/><path class="cls-1" d="M94.79,27.48v-.09l-.57-.25,0,.08.07,0a.05.05,0,0,1,0,.05.41.41,0,0,1-.07.11l-.54.54-.35.34c0-.05,0-.73.06-1v-.33h.12l0-.08L93,26.58l-.06.08a.38.38,0,0,1,.13.09.34.34,0,0,1,0,.2v1.77l.08,0,1-.92.36-.33a.26.26,0,0,1,.24-.06Z"/><path class="cls-1" d="M89.64,48.57v.58h-.15v-.58H89.1v.07s.07.07.07.14V50h-.81V48.88h.54v-.24H88v0h0s.08.06.08.14v1.44h1.15v.41h.33V49.42h.13V50.7H90V48.57Z"/><path class="cls-1" d="M98.88,45.38l-1.31-1.09h0s-1,1.27-1.08,1.29.19.16.2.17l.85-1,1.09.92-.17.2-.56-.46-.21.24.58.49-.12.13-.57-.48-.25.29,0,0h0s.1,0,.15,0l.44.36-.24.3.2.16s1.26-1.52,1.28-1.52L99,45.2Z"/><path class="cls-1" d="M85,47.77l-.89,2,.31.13s.86-1.93.89-2h0Z"/><path class="cls-1" d="M84.54,47.55v.05h0s0,.09,0,.15l-.17.37L84.05,48l-.12.24.33.15-.54,1.16a2.61,2.61,0,0,0,.28.12s.87-1.91.88-1.92h0Z"/><path class="cls-1" d="M83.66,48.14v0a1.87,1.87,0,0,0,.55-.67h0s-.44-.2-.46-.22a0,0,0,0,1,0,0h0s.09.07,0,.23h0a1.64,1.64,0,0,1-1,.77l.07.2h0a1.84,1.84,0,0,0,.55-.21h0a2.2,2.2,0,0,1,.19.65l.28-.16A2.54,2.54,0,0,0,83.66,48.14Z"/><path class="cls-1" d="M93.45,49.43l1.29-.62.19.42.31-.15-.31-.65-1.6.75Z"/><path class="cls-1" d="M94.31,47.17l-.37.18v0h0a.12.12,0,0,1,.13.09l.46.94.31-.16-.16-.34.29-.15s-.09-.2-.1-.21l-.3.14Z"/><path class="cls-1" d="M92.9,48.64A.61.61,0,0,0,94,48.1a.54.54,0,0,0-.33-.28l.23-.1-.12-.24-.43.2a1.26,1.26,0,0,1-.07-.16h0l-.37.2v0h0a.15.15,0,0,1,.12.08h0l-.46.22s.1.23.11.24l.21-.1A.52.52,0,0,0,92.9,48.64Zm.68,0a.32.32,0,0,1-.39-.2.29.29,0,0,1,.13-.34.3.3,0,0,1,.4.15.3.3,0,0,1-.13.39Z"/><path class="cls-1" d="M79.86,45.51h0l-.28-.32,0,0h0a.17.17,0,0,1-.06.14l-.38.34s1.06,1.21,1.09,1.22l.2-.17-.88-1Z"/><path class="cls-1" d="M80.48,45.58l.28.34-.41.36.23.26,1.16-1-.25-.32,0,0h0a.25.25,0,0,1,0,.15l-.06,0s-.26-.29-.31-.36a.71.71,0,0,0-.17-.5.63.63,0,0,0-.87-.09.65.65,0,0,0,.05.92.63.63,0,0,0,.5.16Zm.63,0-.14.12-.22-.24.06,0,.07-.07Zm-.93-.89a.33.33,0,0,1,.47,0,.32.32,0,0,1-.05.45h0a.33.33,0,0,1-.45,0h0A.33.33,0,0,1,80.18,44.73Z"/><path class="cls-2" d="M89,33.66a1.41,1.41,0,1,0,0,2.81,1.39,1.39,0,0,0,1.41-1.4v0A1.4,1.4,0,0,0,89,33.66Z"/><path class="cls-2" d="M85.64,45.16A14.33,14.33,0,0,0,89,47.3a14.05,14.05,0,0,0,3.4-2.15L89,41.75Z"/><path class="cls-2" d="M96,37.05V32.33A12.08,12.08,0,0,1,89,30.22a11.93,11.93,0,0,1-6.92,2.11V37a13.53,13.53,0,0,0,.15,2.11,37.57,37.57,0,0,1,13.54,0A14.59,14.59,0,0,0,96,37.05ZM89,37.81a2.73,2.73,0,1,1,.1,0Z"/><path class="cls-2" d="M82.34,39.56c0,.14.07.29.1.43a10.16,10.16,0,0,0,2.09,4.06L89,39.53l4.5,4.52A10,10,0,0,0,95.62,40c0-.14.07-.29.1-.43a36.8,36.8,0,0,0-13.4,0Z"/><path class="cls-1" d="M84.34,36.16H85a0,0,0,0,0,0,0V34.79s0,0,0,0h-.55a.15.15,0,0,0-.16.15h0v1.22a.06.06,0,0,0,.06,0Z"/><path class="cls-1" d="M83.44,36.16h.65a0,0,0,0,0,0,0v-1.2a.16.16,0,0,0-.16-.16h-.55s0,0,0,0v1.35a.07.07,0,0,0,.06,0Z"/><path class="cls-1" d="M85.33,35h-.14V36.3h-.81a.16.16,0,0,1-.16.15.18.18,0,0,1-.16-.15h-.81V35h-.13a.07.07,0,0,0,0,.05v1.39a0,0,0,0,0,0,0h.82a.33.33,0,0,0,.46.14.35.35,0,0,0,.13-.14h.82a0,0,0,0,0,0,0V35.05a0,0,0,0,0,0-.06Z"/><path class="cls-1" d="M94.06,36h-.54a0,0,0,0,0,0,0h0l.18,1.11a.08.08,0,0,0,.09.08h.09a.08.08,0,0,0,.09-.08l.18-1.11s0,0,0,0Z"/><path class="cls-1" d="M94.13,35.53c.14-.12.46-.48.43-.67s-.63-.54-.67-.76a.66.66,0,0,1,.08-.36h0s-.49.37-.5.63a.46.46,0,0,0,.19.3c.1.09.22.16.32.26a.44.44,0,0,1,.12.15.62.62,0,0,1-.18.46h-.19a1.08,1.08,0,0,0,.19-.35c.08-.3-.67-.37-.54-.83h0a.79.79,0,0,0-.3.49c0,.19.34.32.5.54a.14.14,0,0,1,0,.15h-.3s-.08,0,0,.06l.09.26s0,0,.06,0h1a.09.09,0,0,0,.07,0l.08-.26a0,0,0,0,0,0-.06h-.3Z"/><path class="cls-1" d="M87.7,44.4l-.31.21a0,0,0,0,0,0,0,.05.05,0,0,0,0,0h0l.1,0v.73s0,0,0,0h-.1s0,0,0,0,0,0,0,0h.5s0,0,0,0h-.08s0,0,0,0v-.94h0s0,0,0,0Z"/><path class="cls-1" d="M88.29,45.18a.27.27,0,0,1,.14-.23c.11.06.21.12.21.24a.18.18,0,0,1-.16.19h0a.19.19,0,0,1-.18-.19Zm-.14-.54a.28.28,0,0,0,.18.24.36.36,0,0,0-.23.31h0c0,.18.14.29.36.29a.35.35,0,0,0,.38-.3v0a.36.36,0,0,0-.23-.3.27.27,0,0,0,.18-.25c0-.14-.12-.22-.3-.22s-.34.15-.34.26Zm.19,0a.13.13,0,0,1,.13-.14.14.14,0,0,1,.14.14.19.19,0,0,1-.12.18c-.12-.06-.15-.1-.15-.18Z"/><path class="cls-1" d="M89.23,45.18a.29.29,0,0,1,.14-.23c.11.06.21.12.21.24a.18.18,0,0,1-.16.19h0a.19.19,0,0,1-.18-.19Zm-.14-.54a.28.28,0,0,0,.18.24.36.36,0,0,0-.23.31c0,.18.14.29.36.29a.34.34,0,0,0,.37-.3v0a.36.36,0,0,0-.23-.3.3.3,0,0,0,.18-.25c0-.14-.12-.22-.3-.22a.34.34,0,0,0-.33.26Zm.18,0a.13.13,0,0,1,.13-.14h0c.06,0,.12,0,.12.14a.18.18,0,0,1-.11.19c-.11-.07-.16-.11-.16-.19Z"/><path class="cls-1" d="M90.54,44.4h-.46l0,.36s0,.05,0,.05.33.09.33.31a.21.21,0,0,1-.13.25h-.09c-.12,0-.17-.05-.17-.16s0,0,0,0,0,0,0,0v.17a.08.08,0,0,0,0,.07h0a.45.45,0,0,0,.57-.27.35.35,0,0,0,0-.11c0-.23-.23-.36-.45-.39v-.13h.24c.09,0,.09,0,.09.05a0,0,0,0,0,0,0l0,0h0v-.18s0,0,0,0Z"/><path class="cls-1" d="M84.53,44.05a12.68,12.68,0,0,0,1.09,1.11L89,41.75l3.39,3.4a9.27,9.27,0,0,0,1.09-1.08L89,39.55Z"/><path class="cls-1" d="M89,38.54a37.48,37.48,0,0,0-6.77.62,2,2,0,0,0,.07.4,36.8,36.8,0,0,1,13.4,0,1.76,1.76,0,0,1,.07-.4A37.56,37.56,0,0,0,89,38.54Z"/><path class="cls-1" d="M91.82,35.05a2.76,2.76,0,1,0-2.77,2.74h0a2.74,2.74,0,0,0,2.76-2.73Zm-2.76,1.41A1.41,1.41,0,1,1,90.44,35v0A1.41,1.41,0,0,1,89,36.47h0Z"/><path class="cls-3" d="M165.77,44.23a2.88,2.88,0,0,0-3.07,2.66,2.09,2.09,0,0,0,0,.25,2.82,2.82,0,0,0,2.75,2.92h.25a2.92,2.92,0,0,0,3.07-2.77,1.31,1.31,0,0,0,0-.28A2.69,2.69,0,0,0,165.77,44.23Zm.24,5.34c-1.28,0-2.18-1.09-2.18-2.65,0-1.92,1.09-2.21,1.72-2.21,1.22,0,2.07,1.06,2.07,2.58C167.62,49.34,166.49,49.57,166,49.57Z"/><path class="cls-3" d="M172.78,45.65h-.32a.92.92,0,0,0-.17-.62.87.87,0,0,0-.74-.34c-.49,0-.8.27-.8.69s.12.54.74,1l.21.15c.9.71,1.22,1.21,1.22,1.91a1.55,1.55,0,0,1-.72,1.32,2.59,2.59,0,0,1-2.45,0v-1.4H170s.07.42.11.54a.93.93,0,0,0,1,.68.82.82,0,0,0,.91-.73v0c0-.34-.12-.67-.69-1.08l-.33-.27a2.22,2.22,0,0,1-1.09-1.78c0-.84.72-1.43,1.75-1.43a2,2,0,0,1,1.14.21Z"/><path class="cls-3" d="M180.9,49.73c-.29,0-.55,0-.55-.37V45c0-.36.17-.38.62-.38v-.25h-2.3v.25h.12c.19,0,.5,0,.5.38v4.35c0,.36-.19.37-.63.37V50h2.47v-.26Z"/><path class="cls-3" d="M194,49.46c-.29,0-.54,0-.54-.37V45c0-.36.17-.39.62-.39v-.25h-2.3v.25h.13c.18,0,.5.06.5.39v4.35c0,.36-.19.36-.63.36v.26h3.87V48.72h-.27c0,.54-.21.74-.59.74Z"/><path class="cls-3" d="M161.83,49.73c-.29,0-.54,0-.54-.37V45c0-.36.17-.38.62-.38v-.25h-2.3v.25h.16c.18,0,.5,0,.5.38V46.7h-2.72V45c0-.36.17-.39.62-.39v-.25h-2.3v.25H156c.18,0,.5.06.5.39v4.35c0,.36-.19.36-.64.36v.26h2.48v-.21H158c-.28,0-.54,0-.54-.37V47.19h2.72v2.17c0,.36-.19.37-.63.37V50h2.47v-.26Z"/><path class="cls-3" d="M182.94,49.73V50h2.49v-.26h-.21c-.31,0-.6,0-.6-.38V44.83h1.09c.51,0,.55.28.62.66h.3l-.16-1.16h-4.75l-.16,1.16h.3c0-.38.11-.66.61-.66h1.08v4.5c0,.32-.14.36-.48.36Z"/><path class="cls-3" d="M173.9,44.33v.25H174c.18,0,.5.06.5.39v4.35c0,.36-.19.36-.63.36v.26h2.48v-.21h-.26c-.29,0-.55,0-.55-.37V44.8h.26a1,1,0,0,1,.69.26,1.35,1.35,0,0,1,.42,1.09,1.09,1.09,0,0,1-1,1.16h-.17v.26h.05c1.3,0,2.11-.69,2.11-1.8,0-.88-.66-1.39-1.79-1.39Z"/><path class="cls-3" d="M185.74,49.73V50h2v-.26c-.48,0-.54-.11-.43-.44l.44-1.18h1.63l.47,1.22c.08.22.2.4-.06.4V50h2.09v-.26c-.34,0-.69,0-.9-.44l-2-4.9h-.41l-2,5a.54.54,0,0,1-.59.38Zm3.42-2.12h-1.25l.63-1.7Z"/><path class="cls-3" d="M110.24,45.65h-.31a1,1,0,0,0-.18-.62.87.87,0,0,0-.73-.34c-.49,0-.81.27-.81.69s.12.54.75,1l.2.15c.9.71,1.22,1.21,1.22,1.91a1.52,1.52,0,0,1-.71,1.32,2.2,2.2,0,0,1-1.2.31,2.1,2.1,0,0,1-1.25-.31v-1.4h.28s.06.42.1.54a.93.93,0,0,0,1,.68.81.81,0,0,0,.9-.72v0c0-.34-.11-.67-.68-1.08l-.33-.27a2.2,2.2,0,0,1-1.09-1.78c0-.84.71-1.43,1.74-1.43a1.92,1.92,0,0,1,1.13.21Z"/><path class="cls-3" d="M114.1,44.83c.5,0,.52.29.52.66h.26V44.33h-3.6v.25h.17c.25,0,.54.09.54.5v4.05c0,.54-.16.57-.5.57h-.1V50h3.69V48.72h-.27c0,.54-.21.74-.6.74h-1.15V47.22h1.09c.37,0,.38.13.38.51h.26V46.21h-.26c0,.39,0,.51-.38.51h-1.09V44.83Z"/><path class="cls-3" d="M124.06,44.83c.5,0,.55.29.55.66h.25V44.33h-3.64v.25h.17a.47.47,0,0,1,.54.5v4.05c0,.54-.16.57-.49.57h-.13V50H125V48.72h-.25c0,.54-.22.74-.6.74H123V47.22h1.09c.37,0,.37.13.37.51h.27V46.21h-.27c0,.39,0,.51-.37.51H123V44.83Z"/><path class="cls-3" d="M151.75,44.83c.5,0,.54.29.54.66h.26V44.33h-3.66v.25h.17c.25,0,.54.09.54.5v4.05c0,.54-.15.57-.49.57H149V50h3.71V48.72h-.27c0,.54-.23.74-.6.74h-1.14V47.22h1.08c.38,0,.38.13.38.51h.27V46.21h-.26c0,.39,0,.51-.38.51h-1.09V44.83Z"/><path class="cls-3" d="M138.49,49.73V50h-2.07v-.26c.32,0,.66,0,.66-.6v-4.8h.35l3.9,4V45.14c0-.54-.45-.54-.74-.54v-.25h1.93v.25c-.31,0-.61,0-.61.54V50h-.38l-3.87-4v3.11c0,.54.31.59.63.59Z"/><path class="cls-3" d="M131.41,49.69a1.48,1.48,0,0,1-.79-.48c-.37-.39-.79-.92-1.32-1.6l-.22-.28A2.09,2.09,0,0,0,130,45.7a1.3,1.3,0,0,0-.54-1,2.48,2.48,0,0,0-1.38-.33h-2.18v.25h.14c.18,0,.51.06.51.4v4.34c0,.33-.15.37-.5.37H126V50h2.48v-.23h-.24c-.28,0-.54,0-.54-.38V47.72h.66l.74,1a3.33,3.33,0,0,0,1,1.09,1.4,1.4,0,0,0,.8.15h.75v-.26Zm-2.77-2.58a.68.68,0,0,1-.48.12h-.52V44.8H128c.39,0,1.06.25,1.06,1.26A1.22,1.22,0,0,1,128.64,47.11Z"/><path class="cls-3" d="M121.33,44.58v-.25h-1.88v.25h.21a.15.15,0,0,1,.15.12.8.8,0,0,1-.06.37l-1.3,3.39c-.06-.14-1.34-3.57-1.34-3.57a.45.45,0,0,1,0-.2.21.21,0,0,1,.16-.11h.21v-.25h-2.15v.25a1,1,0,0,1,.44.11,1,1,0,0,1,.33.5l2,4.83h.24l2.22-5s.2-.44.58-.44Z"/><path class="cls-3" d="M130.47,49.73l.62.26h1.34v-.26c-.47,0-.54-.11-.43-.44l.45-1.18h1.63l.47,1.22c.08.22.2.4-.06.4V50h2.06v-.26c-.33,0-.68,0-.89-.44l-2-4.9h-.41l-2,5a.53.53,0,0,1-.6.38Zm3.42-2.12h-1.25l.64-1.7Z"/><path class="cls-3" d="M146.28,44.25a3.43,3.43,0,0,0-2.4.76,2.7,2.7,0,0,0-.88,2.06,2.86,2.86,0,0,0,.94,2.23,3.82,3.82,0,0,0,2.52.8,5,5,0,0,0,1.76-.31V48.58H148s-.09.93-1.54.93a2.16,2.16,0,0,1-1.53-.63,2.44,2.44,0,0,1-.78-1.87,2.3,2.3,0,0,1,.67-1.88,2,2,0,0,1,1.37-.41c1.82,0,1.77,1,1.77,1h.25V44.54A7.38,7.38,0,0,0,146.28,44.25Z"/><rect class="cls-3" x="117.79" y="27.39" width="2.17" height="13.5"/><path class="cls-3" d="M112.18,34.27a7.83,7.83,0,0,0-.72-.57,8.24,8.24,0,0,0-.8-.5,11.08,11.08,0,0,0,1-2.41,10.59,10.59,0,0,0,.4-3.06h-3.13V28a.77.77,0,0,1,.45.3,1.42,1.42,0,0,1,.22,1,6.51,6.51,0,0,1-.25,1.64c-.15.54-.33,1.08-.54,1.63a8.63,8.63,0,0,1-1.19,2.06,12.5,12.5,0,0,1-1.51,1.66l1,1A8.14,8.14,0,0,0,108.61,36a13,13,0,0,0,1.25-1.53c.21.16.42.32.62.5l.54.54c.26.28.54.64.9,1.06a9.34,9.34,0,0,1,.79,1.08l1.2-1.59a7.83,7.83,0,0,0-.74-.88A12.42,12.42,0,0,0,112.18,34.27Z"/><path class="cls-3" d="M114.39,27.69a.4.4,0,0,1,.33.27,1.32,1.32,0,0,1,.15.62v2.53h-2.14v1.67h2.14v8.11h2V27.39h-2.51Z"/><rect class="cls-3" x="122.21" y="37.97" width="12.61" height="1.69"/><path class="cls-3" d="M123.41,28.38a1.3,1.3,0,0,1,.14.58v7.27h10.33V27.79h-2.17v2.67h-6V27.79h-2.67v.32A.37.37,0,0,1,123.41,28.38Zm2.33,3.72h6v2.41h-6Z"/><path class="cls-3" d="M141.63,36.59H139v.3a.52.52,0,0,1,.38.29,1,1,0,0,1,.11.45v3.31h10.33V39.25h-8.15Z"/><path class="cls-3" d="M149.44,27.38h-2.67v.3a.44.44,0,0,1,.36.28,1.29,1.29,0,0,1,.13.61v8.59h2.18V31.87h2.12V30.16h-2.12Z"/><path class="cls-3" d="M146.26,35.66V34H140V32.49h5.13V27.73h-7.36v1.71h5.18v1.45H137.3v.28q.22,0,.36.3a1.31,1.31,0,0,1,.14.59v3.6Z"/><rect class="cls-3" x="152.53" y="37.98" width="12.61" height="1.69"/><path class="cls-3" d="M156.86,34.29a12.49,12.49,0,0,0,2.24-2.12,16.77,16.77,0,0,1,2.44,1.55,9,9,0,0,1,2.06,2.17l1.69-1.51a11.24,11.24,0,0,0-2.44-2A14.27,14.27,0,0,0,159.92,31a9.3,9.3,0,0,0,.91-1.63,8.77,8.77,0,0,0,.54-1.74h-3.66V28c.2,0,.36.13.51.4a1,1,0,0,1,0,.85,10.31,10.31,0,0,1-1.87,3.1,11.58,11.58,0,0,1-3.1,2.6l.9,1A14.85,14.85,0,0,0,156.86,34.29Z"/><path class="cls-3" d="M179,36.63a9.5,9.5,0,0,0-7.61,0c-1,.54-1.57,1.14-1.57,1.88s.55,1.38,1.57,1.9a9.59,9.59,0,0,0,7.61,0c1.05-.54,1.57-1.15,1.57-1.9S180.06,37.14,179,36.63Zm-1.66,2.71a5.6,5.6,0,0,1-2.14.36,5.5,5.5,0,0,1-2.12-.36c-.58-.24-.87-.51-.87-.83s.29-.59.87-.82a5.69,5.69,0,0,1,2.12-.35,5.79,5.79,0,0,1,2.14.35c.58.23.87.51.87.82S177.93,39.1,177.35,39.34Z"/><path class="cls-3" d="M175.49,34.69V34H178V35.7h2.18V27.38h-2.67v.3c.15,0,.26.1.36.28a1.29,1.29,0,0,1,.13.61v.7h-2.52V27.72h-2.17v1.94h-3.23V27.72h-2.66V28a.4.4,0,0,1,.35.26,1.4,1.4,0,0,1,.14.61v5.79Zm0-3.71H178v1.35h-2.52Zm-5.4.36h3.21V33h-3.21Z"/><path class="cls-3" d="M187.87,35.17H183.1v-1.7h9.59v1.7H190v2.6h-2.17Zm-3.21-3a2.34,2.34,0,0,1,0-4.1,5.19,5.19,0,0,1,5.73,0,2.37,2.37,0,0,1,0,4.1A5.23,5.23,0,0,1,184.66,32.13Zm11.53,7.12v1.68H185V37.77a1.36,1.36,0,0,0-.15-.63c-.1-.17-.21-.26-.34-.26v-.31h2.66v2.72Zm-10-10.18a1.2,1.2,0,0,0-.38,1.65,1.37,1.37,0,0,0,.38.38,2.22,2.22,0,0,0,1.34.42,2.17,2.17,0,0,0,1.33-.42,1.28,1.28,0,0,0,.54-1,1.26,1.26,0,0,0-.54-1,2.12,2.12,0,0,0-1.33-.41A2.15,2.15,0,0,0,186.18,29.07Zm7.61,3.65h-1.95V31h1.95V28.58a1.28,1.28,0,0,0-.16-.6c-.1-.19-.22-.28-.35-.28v-.32H196V37.87h-2.18Z"/></g></g></g></g></svg>