<svg xmlns="http://www.w3.org/2000/svg" viewBox="0 0 271.69 76.5"><defs><style>.cls-1{fill:#fff;}.cls-2{fill:#716864;}.cls-3{fill:#00479d;}</style></defs><g id="레이어_2" data-name="레이어 2"><g id="레이어_1-2" data-name="레이어 1"><rect class="cls-1" width="271.69" height="76.5"/><g id="레이어_2-2" data-name="레이어 2"><g id="Layer_1" data-name="Layer 1"><path class="cls-2" d="M169.83,32.88a5.2,5.2,0,0,0,.47-2.46V25.7h-5.89v.81h4.48v3.36a8.29,8.29,0,0,1-.34,3.05h-.25V29.05h-1.51a1,1,0,0,1,.16.68v3.11h-.67V29.05h-1.52v.05a1.11,1.11,0,0,1,.16.67v3.11h-1.06v.81h7.23v-.81Z"/><path class="cls-2" d="M154.07,25.28h-1.25a.74.74,0,0,1,.27.69v1.61h-.63v-2c0-.2-.1-.29-.31-.29h-1.33l.06,0a.72.72,0,0,1,.28.68v3.7a2.52,2.52,0,0,1-.94.17h-1.68V26.43h2v-.82h-3.78l.05.05a1,1,0,0,1,.26.77v3.36a.83.83,0,0,0,.76.9h2.34a1.62,1.62,0,0,0,1-.27v3.27h1.31V28.41h.63v5.3h1.24V25.57C154.35,25.37,154.28,25.28,154.07,25.28Z"/><path class="cls-2" d="M162.2,27V25.54c0-.2-.1-.28-.31-.28h-1.47l.07,0a.73.73,0,0,1,.3.67v4.69h-4.46v.81h4.33c.08,0,.11,0,.11.17v2h1.46V27.81h1.28V27ZM160,28.21a1.76,1.76,0,0,0-.54-1.26h.73v-.83h-1.57v-.91H157v0s.19.1.19.53v.34h-1.58V27h.73a1.74,1.74,0,0,0-.6,1.3,2.2,2.2,0,0,0,4.39,0Zm-3.09,0a.93.93,0,1,1,1.81-.4.9.9,0,0,1,0,.4.93.93,0,1,1-1.81.4A.9.9,0,0,1,156.92,28.21Z"/><path class="cls-2" d="M135.15,29.14v-.53h2.19v-.79H133v-.44h4.31v-.81H133V26.1h4.31v-.79h-6a.93.93,0,0,1,.29.77v1.64a.94.94,0,0,0,1,.9h1.18v.53h-3V30h7.49v-.81Zm-2,3.24h3.49c.45,0,.66-.25.66-.73v-1c0-.19-.09-.29-.3-.29h-5.35v.81h4.23v.45h-4.39v0s.27.11.27.66v.45a1,1,0,0,0,1,.92h4.6v-.83h-4.17Z"/><path class="cls-2" d="M145.31,25.28H143.8l.06,0a.71.71,0,0,1,.32.68v2.93a3.84,3.84,0,0,1-1.3.2h-2.43v-1h2.05c.44,0,.65-.24.65-.73V25.78c0-.2-.09-.29-.3-.29H138.9v.8h2.93v1H138.7v0a1,1,0,0,1,.25.73V29a.85.85,0,0,0,.76.91h3.07a2.84,2.84,0,0,0,1.4-.34v1.11h-4.55v.8h4.48c.07,0,.1,0,.1.17v2h1.46V25.57A.34.34,0,0,0,145.31,25.28Z"/><path class="cls-2" d="M129.05,27.21v-1.6a.29.29,0,0,0-.31-.33h-1.46l.06,0a.74.74,0,0,1,.27.68v7.68h1.47V28h1.28v-.8Zm-6.59-.83h2.46v.16c0,1.94-.89,3.25-2.44,3.6h0v.79h0a4.27,4.27,0,0,0,4.07-4.45v-.9h-4.05Z"/><path class="cls-2" d="M131.84,37.86h-2.48l.11.06A1.21,1.21,0,0,1,130,39v2.58h-2.56v1.32H130v8.89h2.35V38.32C132.34,38,132.18,37.86,131.84,37.86Zm-6.28,2.59V38.19h-3.07l.12.07a1.11,1.11,0,0,1,.55,1v1.17c0,2.12-1.33,4.64-2.92,5.46h0L121.55,47h0a8.07,8.07,0,0,0,2.8-3.22A8.75,8.75,0,0,0,127.2,47h0l1.3-1.1A6.8,6.8,0,0,1,125.56,40.45Zm8.24,5h5.12v.65h-3.46v1.36h7.14v.74h-7.46v.06s.46.17.46,1.1V50a1.58,1.58,0,0,0,1.66,1.52h8V50.21H138v-.8h5.92c.73,0,1.09-.41,1.09-1.24V46.54c0-.32-.16-.47-.51-.47h-3.17v-.65h5.12v-1.3H133.8Zm6.32-1.74c2.47,0,4.39-1.34,4.39-3.06s-2-3-4.39-3-4.44,1.37-4.44,3S137.63,43.68,140.12,43.68Zm0-4.76a1.71,1.71,0,0,1,0,3.41h0a1.71,1.71,0,1,1,0-3.41Zm51.13,4.48c2,0,3.53-1.25,3.53-2.84s-1.58-2.84-3.53-2.84-3.56,1.27-3.56,2.84S189.25,43.4,191.25,43.4Zm0-4.39a1.46,1.46,0,0,1,1.36,1.56v0a1.46,1.46,0,0,1-1.33,1.59h0a1.46,1.46,0,0,1-1.37-1.55v0a1.47,1.47,0,0,1,1.3-1.61h.07Zm-6.59-.92h-2.5l.1.07a1.17,1.17,0,0,1,.52,1.11v.67h-1.72V38.49h-2.93l.1.06h0a1,1,0,0,1,.54,1v1h-2.35V38.47H173.7v.07c.18.07.49.3.49,1v4.23a1.39,1.39,0,0,0,1.34,1.46h5.55v-1.1h1.73V46a5.5,5.5,0,0,0-2.08-.4c-2.43,0-4.39,1.52-4.39,3.39s2,3.38,4.39,3.38,4.39-1.53,4.39-3.38v-.12h0V38.51c0-.31-.13-.46-.47-.46ZM178.81,44h-2.35V41.87h2.35Zm1.88,7.11A2.07,2.07,0,1,1,182.78,49,2.07,2.07,0,0,1,180.69,51.09Zm2.11-8.19h-1.73V41.21h1.73Zm15.26-4.85h-2.35l.08.06a1.51,1.51,0,0,1,.43,1.16v6.8h-2.83v1.17h2.83V50.5h-4.46V48h-2.58v.06a2.51,2.51,0,0,1,.2,1.12v1.11a1.48,1.48,0,0,0,1.4,1.54h7.79V51h0V38.48c0-.32-.16-.46-.5-.46Zm-5.35,7.05h2.89V43.78h-8.4V45h2.88c0,.47-.6,1-1.84,1.15h0v1.27h0c2.12,0,4-1,4.45-2.39Zm-41.29-2.2a6.58,6.58,0,0,0,3.33,2.42h0l1.17-1.1h0a5.24,5.24,0,0,1-3.28-4.47V38.26h-3l.12.06a1.12,1.12,0,0,1,.54,1v.34a5.39,5.39,0,0,1-3.29,4.52h-.06L148,45.3h0a6.59,6.59,0,0,0,3.38-2.46Zm7-4.78h-2.47l.11.07a1.2,1.2,0,0,1,.52,1.11v1.23H154v1.33h2.56V46a5.5,5.5,0,0,0-2.08-.4c-2.42,0-4.39,1.52-4.39,3.39s2,3.38,4.39,3.38,4.39-1.53,4.39-3.38V48.9h0V38.51c0-.31-.14-.46-.45-.46Zm-3.94,13A2.07,2.07,0,1,1,156.55,49h0a2.09,2.09,0,0,1-2.07,2.1ZM168,46h3.55V38.65H161.54v.06h0a1.19,1.19,0,0,1,.6,1.16v4.64A1.45,1.45,0,0,0,163.6,46h2.1v3.92H161v1.35h11.76V49.91H168Zm-3.55-1.3V40h4.76v4.71Z"/><path class="cls-1" d="M113,27.71a1.53,1.53,0,0,0-.57-.5,50.45,50.45,0,0,0-38.32,0,1.65,1.65,0,0,0-.58.5,2.22,2.22,0,0,0-.24,1.13V47.66a2.22,2.22,0,0,0,.24,1.13,1.44,1.44,0,0,0,.53.48,50.26,50.26,0,0,0,19.21,3.79,50.17,50.17,0,0,0,19.2-3.79,1.36,1.36,0,0,0,.53-.48,2.22,2.22,0,0,0,.24-1.13V28.84A2.22,2.22,0,0,0,113,27.71Z"/><path class="cls-3" d="M111.77,28a49.83,49.83,0,0,0-36.93,0c-.36.18-.55.34-.55.73v19c0,.41.19.57.55.73a49.8,49.8,0,0,0,36.93,0c.36-.19.54-.35.54-.73v-19C112.31,28.34,112.13,28.18,111.77,28Zm-5.54.3a1.11,1.11,0,0,1,1.31-.87,1.08,1.08,0,0,1,.5.25h0l-.12.33h0a.68.68,0,0,0-.36-.24.75.75,0,0,0-.57.07.88.88,0,0,0-.41.58.89.89,0,0,0,0,.73.72.72,0,0,0,.44.34.9.9,0,0,0,.46,0h0l-.08.35h0a1.06,1.06,0,0,1-.47,0,1.09,1.09,0,0,1-.81-1.32A.64.64,0,0,1,106.23,28.3Zm-2.68-1.78h0l.32.07-.46,2.26-.32-.06Zm-3.78-.6h0l.32,0s-.25,2-.26,2l.86.12v.31l-1.22-.18Zm-4.8.77a1.3,1.3,0,0,1,.38-.91.89.89,0,0,1,.69-.24,1.07,1.07,0,0,1,1,1.16s0,.06,0,.09a1.29,1.29,0,0,1-.37.92.94.94,0,0,1-.73.23.92.92,0,0,1-.63-.26A1.28,1.28,0,0,1,95,26.69Zm-4-1.13v1h1v-1h.3l.08,2.32H92V26.83H91v1h-.32l-.09-2.33Zm-.62,3.21c1-.06,2-.1,2.92-.1a51.54,51.54,0,0,1,14.53,2.07H90.35Zm0,3h18.38a.33.33,0,0,1,0,.14v.52H92.36v4.47H99.9v.66H90.38Zm3.07,4.08v-.65h15.32v.65Zm15.32,1v.66h-7.81v-.66ZM93.42,34.17v-.64h15.32v.65Zm6.48,4.48v4.07H86.84v-.65H97.63V39.3H86.84V30.74h-8a45,45,0,0,1,10.47-1.91v9.82ZM88,25.76h0v.32l-.64.08.22,2h-.32s-.17-1.94-.18-1.94l-.64.08,0-.32Zm-4.92.73.28-.07h0l1.31,2.11-.36.07L84,28.07l-1,.19-.1.6-.3.07ZM78.7,27.82a1,1,0,0,1,.66-.5,1,1,0,0,1,.48,0h0l.07.35h0a.82.82,0,0,0-.44,0A.74.74,0,0,0,79,28a1,1,0,0,0-.06.73.8.8,0,0,0,.93.65h.05a.84.84,0,0,0,.39-.22h0l.12.34h0a1,1,0,0,1-.44.2,1.06,1.06,0,0,1-.82-.07,1.27,1.27,0,0,1-.57-.79,1.22,1.22,0,0,1,.11-1Zm-.82,4.12V31.8h7.9v7.5h-7.9Zm0,8.42H96.54V41H85.78v2.77h15.15V38.65h7.81v5.42a1.34,1.34,0,0,1-.18.73,1,1,0,0,1-.41.31,35.7,35.7,0,0,1-7.22,1.67V44.43h-23a2.28,2.28,0,0,1,0-.37Zm22,5.12V46.9a60.57,60.57,0,0,1-6.59.42,53.15,53.15,0,0,1-13.8-1.83Zm-22.15,3a.69.69,0,0,1-.46-.37,1.11,1.11,0,0,1,0-.84L77.72,46h0l.3.1-.42,1.24a.88.88,0,0,0,0,.64.45.45,0,0,0,.26.21.43.43,0,0,0,.35,0,.87.87,0,0,0,.36-.52L79,46.42l.31.11-.44,1.28C78.63,48.42,78.25,48.67,77.75,48.49Zm2.57.74s-.34-1.94-.36-2L79.44,49l-.31-.07.65-2.2h0l.41.12s.34,1.89.35,2l.51-1.73.31.09-.65,2.19Zm1.36.36-.32-.09.55-2.2h0l.31.08Zm1.15.27-.27-2.43h0l.35.08.19,2.12,1.06-1.8.33.07L83.21,50Zm3.09-1.47-.85-.15s-.1.61-.11.63l.73.14,0,.31-.77-.14s-.12.69-.13.73l.85.15-.06.32-1.16-.21L84.84,48h0l1.16.21Zm1.75.57a.52.52,0,0,1-.48.46.41.41,0,0,1,.15.25l.27,1-.37,0L87,49.82c-.06-.22-.14-.23-.3-.26h-.16l-.14,1-.32,0,.31-2.29h0l.52.07a.91.91,0,0,1,.63.27.6.6,0,0,1,.11.34.31.31,0,0,0,0,.09Zm1.07.41a.79.79,0,0,1,.49.84.67.67,0,0,1-.69.64l-.15,0a1.17,1.17,0,0,1-.41-.14h0l.07-.33h0a1,1,0,0,0,.41.15.43.43,0,0,0,.31-.08.34.34,0,0,0,.11-.23c0-.23-.14-.34-.33-.46a.77.77,0,0,1-.44-.73.62.62,0,0,1,.66-.58h.07a1.25,1.25,0,0,1,.43.12h0l0,.34h0a.72.72,0,0,0-.38-.13.33.33,0,0,0-.27.06.26.26,0,0,0-.1.19c-.06.19.08.29.26.41ZM90,50.84h-.33l.17-2.31h.33Zm2.12-1.9h-.64l-.09,2H91s.09-2,.09-2h-.65v-.3h0l1.61.07Zm2.2-.28S93.47,50,93.46,50v1h-.32v-.88l-.8-1.34h.39l.6,1,.59-1h.38ZM97,50.6a.9.9,0,0,1-.66.31c-.61,0-1-.41-1.08-1.13a1.08,1.08,0,0,1,.85-1.26h.09c.6,0,1,.42,1.07,1.14a1.26,1.26,0,0,1-.27,1Zm1.16.13-.32,0-.24-2.31,1.11-.12h0v.33l-.8.08s.06.6.07.63l.73-.08v.32l-.73.08.18,1.12Zm3.66-.49-.44.06-1-.94c0,.07.17,1.08.17,1.08l-.28.14-.36-2.3.33-.05s.14.9.14,1l.73-1.1.39-.06h0l-.8,1.24,1.24,1Zm1.12-.18c-.6.12-1.08-.27-1.22-1a1.06,1.06,0,0,1,.63-1.35l.1,0c.58-.12,1.08.28,1.22,1a1,1,0,0,1-.51,1.4l-.2.07Zm2.58-.64-.51-.73a.27.27,0,0,0-.37-.12h-.16l.25,1-.32.08-.53-2.1.51-.13a.89.89,0,0,1,.68,0,.63.63,0,0,1,.26.4.38.38,0,0,1,0,.15.53.53,0,0,1-.28.47.36.36,0,0,1,.23.17l.61.81Zm.81-.21L105.65,47l1.14-.27h0l.09.3-.82.24.18.61.73-.22.09.31-.73.21.2.73.82-.24.1.31Zm3.09-1-.39-.48-.91.41v.61l-.32.11.1-2.48.3-.1h0l1.58,1.92ZM95.93,27.63a.57.57,0,0,0,.43-.15A1.21,1.21,0,0,0,96.43,26a.58.58,0,0,0-.4-.19.56.56,0,0,0-.43.15,1,1,0,0,0-.29.73C95.29,27.11,95.44,27.6,95.93,27.63Zm12.18,20.21.73-.25-.73-.89C108.13,46.78,108.11,47.81,108.11,47.84Zm5.12-20.24a1.6,1.6,0,0,0-.59-.5,51,51,0,0,0-38.7,0,1.65,1.65,0,0,0-.58.5,2.4,2.4,0,0,0-.23,1.15v19a2.45,2.45,0,0,0,.24,1.13,1.47,1.47,0,0,0,.54.48,50.65,50.65,0,0,0,19.4,3.83,50.6,50.6,0,0,0,19.39-3.83,1.47,1.47,0,0,0,.54-.48,2.28,2.28,0,0,0,.24-1.14v-19a2.33,2.33,0,0,0-.24-1.13Zm-.54,20.16a1.29,1.29,0,0,1-.1.65.77.77,0,0,1-.33.34,49,49,0,0,1-19,3.72,48.92,48.92,0,0,1-19-3.72.77.77,0,0,1-.33-.34,1.3,1.3,0,0,1-.11-.65v-19a1.32,1.32,0,0,1,.11-.65.83.83,0,0,1,.33-.34,50.48,50.48,0,0,1,37.94,0,.9.9,0,0,1,.33.34,1.43,1.43,0,0,1,.1.65ZM96.6,49.06a.55.55,0,0,0-.44-.14.53.53,0,0,0-.4.19,1,1,0,0,0-.2.73,1,1,0,0,0,.28.73.59.59,0,0,0,.84,0,.93.93,0,0,0,.2-.73,1,1,0,0,0-.25-.73ZM87,48.6l-.27,0s-.08.64-.08.67h.23a.48.48,0,0,0,.35-.07.3.3,0,0,0,.12-.21V48.9C87.32,48.75,87.2,48.63,87,48.6Zm16-.43a.6.6,0,0,0-.45-.08.55.55,0,0,0-.37.24,1,1,0,0,0-.11.74c.08.4.35.83.83.73a.59.59,0,0,0,.38-.25,1,1,0,0,0,.1-.73A1,1,0,0,0,103,48.17Zm1.53-.48a1.71,1.71,0,0,0-.26.07,6,6,0,0,0,.16.64l.23-.06c.22-.05.34-.18.34-.35V47.9c-.06-.18-.23-.26-.47-.2ZM83.29,26.8c0,.07-.17,1.09-.18,1.13l.73-.14s-.47-.91-.53-1Z"/></g></g></g></g></svg>