<svg xmlns="http://www.w3.org/2000/svg" xmlns:xlink="http://www.w3.org/1999/xlink" viewBox="0 0 271.69 76.5"><defs><style>.cls-1{fill:#fff;}.cls-2{fill:#00348c;}.cls-3{fill:url(#무제_그라디언트_2);}.cls-4{fill:#008ccf;}</style><radialGradient id="무제_그라디언트_2" cx="7858.82" cy="-78.64" r="59.01" gradientTransform="matrix(0.22, 0, 0, -0.22, -1625.54, 14.33)" gradientUnits="userSpaceOnUse"><stop offset="0" stop-color="#82c1ea"/><stop offset="0.11" stop-color="#49aade"/><stop offset="0.22" stop-color="#1594d3"/><stop offset="0.28" stop-color="#008ccf"/><stop offset="1" stop-color="#00348c"/></radialGradient></defs><g id="레이어_2" data-name="레이어 2"><g id="레이어_1-2" data-name="레이어 1"><rect class="cls-1" width="271.69" height="76.5"/><g id="레이어_2-2" data-name="레이어 2"><g id="Layer_1" data-name="Layer 1"><path class="cls-2" d="M112.59,39.92v1.35h5.67v2.34h2.09V41.27h4.5V39.92Z"/><path class="cls-2" d="M116.57,42.06h-2.1v3.4a.61.61,0,0,0,.61.59h8.61V44.7h-7.12Z"/><path class="cls-2" d="M132.32,40.1a3.33,3.33,0,0,0-3.48,3.16,3.5,3.5,0,0,0,7,0A3.34,3.34,0,0,0,132.32,40.1Zm0,4.93a1.68,1.68,0,0,1-1.53-1.77,1.54,1.54,0,0,1,3.06-.39,2.54,2.54,0,0,1,0,.39A1.62,1.62,0,0,1,132.38,45Z"/><path class="cls-2" d="M115.12,39.07h8.27V33.32h-2.13v1.94h-4.69V33.32h-2.1v5.17a.61.61,0,0,0,.63.59Zm1.48-2.43h4.7v1.08h-4.73Z"/><path class="cls-2" d="M136.27,32.87h-2.1v4.5a9.55,9.55,0,0,1-3.77.72h-2.1V34.67h4.53V33.32h-6.62V38.9a.6.6,0,0,0,.62.57h3.58a10,10,0,0,0,3.76-.7v1.62h2.1V37h2V35.65h-2Z"/><path class="cls-2" d="M212,32.87v1.67h-1.62V33.32h-2.09v1.74H205.7V33.32h-2.09v5.52a.6.6,0,0,0,.62.58h6.19V38.08H212v2h2.1V32.87Zm-3.74,5.21h-2.63V36.41h2.63ZM212,36.71h-1.62V35.9H212Z"/><path class="cls-2" d="M210.19,40.08a3.33,3.33,0,0,0-3.44,3.15,3.5,3.5,0,0,0,7,0A3.34,3.34,0,0,0,210.19,40.08Zm0,4.91a1.61,1.61,0,0,1-1.53-1.7v-.06a1.54,1.54,0,0,1,3.05-.44,2.06,2.06,0,0,1-1.47,2.2Z"/><path class="cls-2" d="M148.19,32.86v4.06h-2v1.34h2v8h2.1V32.86Z"/><path class="cls-2" d="M190.3,36.33h-2V32.86h-2.1v7.52h2.1v-2.7h2Z"/><path class="cls-2" d="M199.18,41h2.09V33.62H192V35h7.18Z"/><path class="cls-2" d="M198.34,38.48h-2.13v4.78h-.81V38.48h-2.1v4.78h-3.24v1.31h12.55V43.26h-4.27Z"/><path class="cls-2" d="M180.15,41.33v1.34h6V46.3h2.1v-5Z"/><path class="cls-2" d="M184.8,37.27a3,3,0,0,0-.68-1.85h1.55V34h-3.18V32.41h-2.1V34h-3.17v1.38h1.47a2.93,2.93,0,0,0-.67,1.86,3.41,3.41,0,0,0,6.78,0Zm-4.81,0a1.44,1.44,0,1,1,2.8-.68,1.31,1.31,0,0,1,0,.68A1.44,1.44,0,1,1,180,38,1.31,1.31,0,0,1,180,37.27Z"/><path class="cls-2" d="M144.4,36.92h0a10.07,10.07,0,0,1-.29-2.38V33.38h-2.23v1.16a10.63,10.63,0,0,1-.3,2.38,8.87,8.87,0,0,1-3,4.41l-.07.06,1,.94.06,0A11.4,11.4,0,0,0,143,38.64a11.5,11.5,0,0,0,3.43,3.65l.05,0,1-.94-.07-.06A8.92,8.92,0,0,1,144.4,36.92Z"/><path class="cls-2" d="M173.64,32.86v4.06H173V32.86h-2.1v6.21a9.93,9.93,0,0,1-3.54.62h-.21v-5h2.74V33.32H165v7.13a.61.61,0,0,0,.61.59h1.7a10.09,10.09,0,0,0,3.53-.61v5.84H173v-8h.64v8h2.09V32.86Z"/><path class="cls-2" d="M151.45,38.73v1.35h5.27v.81h-3.56v1.35h6.89V43h-6.89v2.76a.59.59,0,0,0,.61.58h8.6V44.92h-6.89v-.65h6.9V40.93h-3.56v-.81h5.26V38.73Z"/><path class="cls-2" d="M157.77,38.42c2.22,0,4-1.43,4-3.17s-1.8-3.17-4-3.17-4.05,1.42-4.05,3.17S155.54,38.42,157.77,38.42Zm0-5.05a1.81,1.81,0,0,1,1.74,1.88,1.75,1.75,0,1,1-3.49.23.88.88,0,0,1,0-.23A1.83,1.83,0,0,1,157.77,33.37Z"/><path class="cls-2" d="M225,32.87V39h-9.24v1.34h2.77v1.28h2.1V40.31H225v.55h-2v1.35h2v1.24h2.1V32.91Z"/><path class="cls-2" d="M220.66,42.19h-2.1v3.5a.59.59,0,0,0,.61.58h8V44.93h-6.49Z"/><path class="cls-2" d="M220.08,38.7a3.34,3.34,0,0,0,3.49-3.15,3.5,3.5,0,0,0-7,0A3.33,3.33,0,0,0,220.08,38.7Zm0-5a1.63,1.63,0,0,1,1.45,1.78v0a1.48,1.48,0,1,1-2.9.62,1.62,1.62,0,0,1,0-.62,1.61,1.61,0,0,1,1.42-1.79h0Z"/><path class="cls-3" d="M97.11,30h9.58v7.24a6.5,6.5,0,0,1-4.79,6.13,6.47,6.47,0,0,1-4.79-6.13Z"/><path class="cls-1" d="M99.62,40.6l1.44-1.45,1.41,1.42h1.88V36.46h1.23V35h-1.23v-.44h1.23V33.13h-1.27V31.37h-4v1.36h2.43v5.93L101.05,37,98.52,39.5Z"/><path class="cls-2" d="M81.2,32.74H78.28v8.77c0,2.24-.38,3.39-2.44,3.39s-2.43-1.24-2.43-3.39V32.74h-3v8.92c0,2.52.66,4.87,5.42,4.87s5.48-2.34,5.48-4.87V32.74Z"/><polygon class="cls-4" points="91.31 46.3 94.33 46.3 94.33 32.74 94.22 32.74 91.31 32.74 91.31 38.35 86.38 38.35 86.38 32.74 83.36 32.74 83.36 46.3 86.38 46.3 86.38 40.22 91.31 40.22 91.31 46.3"/><path class="cls-2" d="M65.5,32.74v9.1l-5.29-9.1H57V46.3h2.81V36.71l5.56,9.59h3V32.74Z"/><path class="cls-2" d="M50.88,38c-1.73-.76-3.23-1.4-3.23-2.5,0-.77.81-1.29,2.1-1.28a13.64,13.64,0,0,1,4.59,1l.16.08V32.94h0a29.11,29.11,0,0,0-4.28-.4c-3.51,0-5.6,1.31-5.6,3.53S46.9,39.48,49,40.42c1.71.81,3.31,1.51,3.31,2.84s-2.18,1.48-2.43,1.48A10.68,10.68,0,0,1,45,43.37l-.17-.09v2.61l.21,0a18.87,18.87,0,0,0,4.3.58c4.06,0,6.25-1.4,6.25-4C55.59,40.07,53.08,39,50.88,38Z"/></g></g></g></g></svg>