<svg xmlns="http://www.w3.org/2000/svg" viewBox="0 0 271.69 76.5"><defs><style>.cls-1{fill:#fff;}.cls-2{fill:#122d8b;}</style></defs><g id="레이어_2" data-name="레이어 2"><g id="레이어_1-2" data-name="레이어 1"><rect class="cls-1" width="271.69" height="76.5"/><g id="레이어_2-2" data-name="레이어 2"><g id="Layer_1" data-name="Layer 1"><polygon class="cls-2" points="203.11 39.32 203.12 31.43 204.85 31.43 204.85 42.09 203.12 42.09 203.11 40.73 200.7 40.73 200.7 39.32 203.11 39.32"/><polyline class="cls-2" points="196.25 40.02 196.25 44.67 204.96 44.67 204.96 43.2 197.94 43.2 197.94 40.02 196.25 40.02"/><polygon class="cls-2" points="202.51 37.25 194.98 37.25 194.98 38.8 198.35 38.8 198.35 41.35 199.9 41.35 199.9 38.8 202.51 38.8 202.51 37.25"/><path class="cls-2" d="M195.55,33.88a3.44,3.44,0,0,1,6.83,0,3.44,3.44,0,0,1-6.83,0M199,35.54a1.76,1.76,0,0,0,1.85-1.66,1.86,1.86,0,0,0-3.69,0A1.75,1.75,0,0,0,199,35.54"/><rect class="cls-2" x="173.14" y="36.8" width="10.17" height="1.37"/><polygon class="cls-2" points="173.92 39.03 173.92 40.35 180.88 40.35 180.88 41.24 173.92 41.24 173.92 44.71 182.63 44.71 182.63 43.39 175.55 43.39 175.55 42.55 182.5 42.55 182.5 42.55 182.5 39.03 173.92 39.03"/><polygon class="cls-2" points="170.17 37.3 167.65 37.3 167.65 35.9 170.17 35.9 170.17 31.38 171.89 31.38 171.89 44.57 170.17 44.57 170.17 37.3"/><polygon class="cls-2" points="146.99 31.4 146.99 38.4 148.68 38.4 148.68 35.79 150.17 35.79 150.17 34.35 148.71 34.35 148.71 31.4 146.99 31.4"/><path class="cls-2" d="M147.06,40.37h-4.78V43.3h4.78ZM140.64,39h8.08V44.7h-8.08Z"/><path class="cls-2" d="M142.94,31.65s-.23,3.79,2.84,5.36l-.88,1.21s-2.25-1.45-2.75-3.1c-.52,1.63-2.76,3.1-2.76,3.1L138.51,37c3.06-1.6,2.85-5.36,2.85-5.36Z"/><polygon class="cls-2" points="160.35 31.4 160.35 38.4 158.66 38.4 158.66 35.18 156.48 35.18 156.48 33.75 158.64 33.75 158.64 31.4 160.35 31.4"/><path class="cls-2" d="M158.86,41.74c0-1.06-1.27-1.91-2.83-1.91s-2.82.85-2.82,1.91,1.27,1.91,2.82,1.91,2.83-.85,2.83-1.91M156,45.16c-2.5,0-4.54-1.53-4.54-3.42s2-3.43,4.54-3.43,4.55,1.54,4.55,3.42-2,3.42-4.55,3.42"/><polygon class="cls-2" points="194.04 31.35 194.04 38.7 192.35 38.7 192.35 34.12 190.15 34.12 190.15 32.7 192.31 32.7 192.31 31.35 194.04 31.35"/><rect class="cls-2" x="190.35" y="35.32" width="2.14" height="1.43"/><path class="cls-2" d="M192.54,41.82c0-1-1.26-1.82-2.82-1.82s-2.83.82-2.83,1.82,1.26,1.82,2.83,1.82,2.82-.81,2.82-1.82m-2.82,3.29c-2.52,0-4.55-1.45-4.55-3.29s2-3.29,4.55-3.29,4.54,1.45,4.54,3.29-2,3.29-4.54,3.29"/><path class="cls-2" d="M153.57,35.12a7.08,7.08,0,0,1-2.57,3l-.88-1.24c2.9-1.45,2.65-5.23,2.65-5.23h1.63s-.26,3.78,2.61,5.23l-.87,1.22a7.15,7.15,0,0,1-2.57-3"/><path class="cls-2" d="M178.31,35.06c-1.26,0-2.89-.43-2.89-1.41s1.6-1.41,2.89-1.41,2.9.43,2.9,1.45-1.61,1.41-2.9,1.41m0-4.18c-2.51,0-4.5,1.14-4.5,2.82s2,2.7,4.5,2.7,4.5-1,4.5-2.7-2-2.82-4.5-2.82"/><rect class="cls-2" x="177.29" y="37.89" width="1.7" height="1.47"/><path class="cls-2" d="M165.1,38.53a9.89,9.89,0,0,0,2.72,3.85l1-1.08a7.13,7.13,0,0,1-2.41-3.48,15,15,0,0,1-.49-4.53V31.68h-1.72v1.61a14.42,14.42,0,0,1-.43,4.53,7.45,7.45,0,0,1-2.53,3.48l1.07,1.08a9.62,9.62,0,0,0,2.78-3.85"/><path class="cls-2" d="M188.88,31.43v2h-2.82v-2h-1.59V38h6V31.43Zm-2.82,3.35h2.82v1.87h-2.82Z"/><path class="cls-2" d="M131.76,32.59c.89,5.07-12.94,11.73-30.88,14.86S67.66,49,66.77,43.9s13-11.73,30.9-14.85,33.21-1.54,34.09,3.54"/><polyline class="cls-1" points="114.87 40.13 114.78 34.85 116.45 34.85 116.45 41.51 114.06 41.51 112.39 36.03 112.35 36.03 112.45 41.51 110.79 41.51 110.79 34.85 113.29 34.85 114.84 40.13"/><polyline class="cls-1" points="84.6 35.47 83.68 41.57 81.86 41.57 83.11 34.85 86.1 34.85 87.34 41.57 85.54 41.57 84.64 35.47"/><polyline class="cls-1" points="92.44 39.99 93.28 34.85 96.02 34.85 96.17 41.57 94.49 41.57 94.44 35.52 94.41 35.52 93.28 41.57 91.57 41.57 90.45 35.52 90.41 35.52 90.37 41.57 88.69 41.57 88.83 34.85 91.58 34.85 92.41 39.99"/><path class="cls-1" d="M79.05,39.67a.85.85,0,0,1,0,.5.57.57,0,0,1-.65.45.59.59,0,0,1-.67-.51.38.38,0,0,1,0-.1v-.65H75.91v.52c0,1.5,1.19,2,2.45,2s2.22-.42,2.37-1.54a3.44,3.44,0,0,0,0-1.11c-.29-1.4-2.84-1.83-3-2.61a1.09,1.09,0,0,1,0-.36.55.55,0,0,1,.61-.45.57.57,0,0,1,.63.52.14.14,0,0,1,0,.09v.42h1.68v-.47c0-1.45-1.31-1.7-2.27-1.7-1.19,0-2.17.4-2.35,1.49A2.37,2.37,0,0,0,76,37c.29,1.36,2.68,1.76,3,2.63"/><path class="cls-1" d="M100.91,39.67a1,1,0,0,1,0,.48.58.58,0,0,1-.66.45.59.59,0,0,1-.66-.52v-.73H97.81v.52c0,1.48,1.17,1.93,2.42,1.93s2.18-.41,2.36-1.52a3.32,3.32,0,0,0,0-1.09c-.29-1.4-2.81-1.81-3-2.6a1,1,0,0,1,0-.34.56.56,0,0,1,.62-.45.56.56,0,0,1,.61.51.28.28,0,0,1,0,.09v.41h1.65v-.47c0-1.45-1.3-1.67-2.24-1.67-1.18,0-2.17.39-2.33,1.45a2.22,2.22,0,0,0,0,.89c.29,1.37,2.66,1.76,3,2.63"/><path class="cls-1" d="M106.59,40.56a.6.6,0,0,0,.64-.48V34.85h1.7v5.26c-.12,1.26-1.11,1.66-2.34,1.66s-2.24-.4-2.36-1.66V34.85h1.63v5.23a.6.6,0,0,0,.65.48"/><path class="cls-1" d="M120.58,40.48a.62.62,0,0,0,.73-.49,1,1,0,0,0,0-.25v-1h-.73v-1H123V40c-.1,1.23-1.17,1.66-2.36,1.66s-2.26-.43-2.37-1.66V36.33c.15-1.27,1.17-1.67,2.37-1.67s2.23.4,2.35,1.67a3.23,3.23,0,0,1,0,.44V37h-1.69v-.38a1,1,0,0,0,0-.25.6.6,0,0,0-.66-.49.62.62,0,0,0-.68.49,1.61,1.61,0,0,0,0,.31v3.09a1,1,0,0,0,0,.25.63.63,0,0,0,.68.5"/></g></g></g></g></svg>