<svg xmlns="http://www.w3.org/2000/svg" viewBox="0 0 271.69 76.5"><defs><style>.cls-1{fill:#fff;}.cls-2{fill:#55a3a3;}.cls-3{fill:#00696d;}.cls-4{fill:#f18d00;}</style></defs><g id="레이어_2" data-name="레이어 2"><g id="레이어_1-2" data-name="레이어 1"><rect class="cls-1" width="271.69" height="76.5"/><g id="레이어_2-2" data-name="레이어 2"><g id="Layer_1" data-name="Layer 1"><path class="cls-2" d="M79.53,38.25A15.46,15.46,0,1,0,95,22.8,15.45,15.45,0,0,0,79.53,38.25Zm.24,0A15.23,15.23,0,1,1,95,53.49,15.22,15.22,0,0,1,79.77,38.25Z"/><path class="cls-2" d="M80.6,38.25A14.39,14.39,0,1,0,95,23.87h0A14.41,14.41,0,0,0,80.6,38.25Zm.65,0A13.74,13.74,0,1,1,95,52,13.74,13.74,0,0,1,81.25,38.25Z"/><path class="cls-2" d="M86.88,41.7a8.5,8.5,0,0,1-.7-3.44,8.81,8.81,0,0,1,17.62,0,8.58,8.58,0,0,1-.23,2l.17.19a8.72,8.72,0,0,0,.28-2.22A9,9,0,1,0,86,37.75v.5a8.8,8.8,0,0,0,.7,3.51Z"/><path class="cls-2" d="M98.5,49.37V47.09h-.26v2.27h-.51V45.72h.51v1h.26v-1H99v3.65Z"/><path class="cls-2" d="M102.71,46.88h-.45v1.2h-.59V45.72h.59v.79h.45Z"/><path class="cls-2" d="M95.63,46.88h-.46v1.2h-.59V45.72h.59v.79h.46Z"/><path class="cls-2" d="M92.09,47.26h-.45v2.11H91V45.72h.6V46.9h.45Z"/><path class="cls-2" d="M90.12,47.14c0,.42-.05,1-.35,1s-.34-.59-.34-1,0-1,.34-1S90.12,46.71,90.12,47.14Zm-.35-1.41c-.7,0-.94.81-.94,1.41s.23,1.4.94,1.4,1-.81,1-1.4-.24-1.4-1-1.4Z"/><path class="cls-2" d="M93.38,47.1h0a2.37,2.37,0,0,0,.78.7h0l.26-.31a1.42,1.42,0,0,1-.56-.58,1.76,1.76,0,0,1-.19-.9v-.24h-.61V46a1.77,1.77,0,0,1-.18.91,1.49,1.49,0,0,1-.56.58l.26.31h0a2.38,2.38,0,0,0,.81-.7Z"/><path class="cls-2" d="M96.78,47.23a2.07,2.07,0,0,0,.71.84l.28-.29a1.62,1.62,0,0,1-.48-.53,1.71,1.71,0,0,1-.25-.91v-.21h.47v-.36H96v.36h.41v.21a1.79,1.79,0,0,1-.17.91,1.48,1.48,0,0,1-.43.53l.28.29A2,2,0,0,0,96.78,47.23Z"/><path class="cls-2" d="M93.17,49.29a.17.17,0,0,1-.16-.17V48h.57v.88H95.2v.38Z"/><path class="cls-2" d="M100.17,49.29a.17.17,0,0,1-.16-.17V48h.6v.88h1.61v.38Z"/><path class="cls-2" d="M99.64,45.77v1.65a.17.17,0,0,0,.16.17h1.58v-.38h-1.15V46.13h1v-.36Z"/><path class="cls-2" d="M84.06,38.89l-1-.16h0l1-.24Zm1.08.7V39L84.53,39v-.57l.55-.13V37.7l-2.81.77v.59Z"/><path class="cls-2" d="M84.36,37c.26-.19.36-.31.39-.47a.23.23,0,0,0-.18-.26h0c-.41-.08-.85.64-1.53.51a.69.69,0,0,1-.57-.8v0a1,1,0,0,1,.27-.47l.52.09A.94.94,0,0,0,83,36c0,.11,0,.24.15.26.33.06.88-.7,1.53-.55a.75.75,0,0,1,.65.84v0a1.11,1.11,0,0,1-.33.56Z"/><path class="cls-2" d="M84.84,34.14,84,33.56h0l1,.22Zm.66,1.11.22-.51-.48-.35.22-.51L86,34l.22-.51L83.4,33l-.24.55Z"/><path class="cls-2" d="M84.36,31.23l.32-.43,1.68.43h0l-1.26-1,.33-.44,2.23,1.71-.3.4-1.76-.44h0l1.32,1-.33.43Z"/><path class="cls-2" d="M88.07,27.57l1.15-.7.24.41-.65.44.33.56.63-.36.25.41-.63.37.59,1-.49.28Z"/><path class="cls-2" d="M91.32,27.55c-.15-.54-.15-.89.14-1s.51.27.65.7c.19.65.12.89-.14,1S91.47,28.08,91.32,27.55Zm-.55.17c.3,1,.91,1.26,1.41,1.12s.85-.62.53-1.67-.92-1.23-1.37-1.1S90.48,26.77,90.77,27.72Z"/><path class="cls-2" d="M94.28,25.56l.06,1.93c0,.23.12.39.32.37s.33-.14.33-.42l-.06-1.9h.57l0,1.85c0,.6-.28,1-.88,1s-.89-.27-.91-1l-.05-1.85Z"/><path class="cls-2" d="M97,25.68l.52.12.3,1.7h0L98.2,26l.52.12-.64,2.73-.48-.11-.32-1.78h0l-.38,1.61-.51-.12Z"/><path class="cls-2" d="M99.61,29l.88-1.63.15.07c.35.19.26.61,0,1.08s-.55.74-.91.55Zm-.7.15.7.37c.7.37,1.3-.19,1.61-.76a1.19,1.19,0,0,0-.31-1.73l-.66-.35Z"/><path class="cls-2" d="M102.09,30l.84-.63h0l-.54.89Zm-1.25.27.41.36.49-.35.42.38-.3.52.41.37,1.4-2.55-.44-.4Z"/><path class="cls-2" d="M104.66,30.81l-.34-.47.39-.29,1,1.41-.39.28-.34-.47-1.87,1.4-.34-.46Z"/><path class="cls-2" d="M106.32,32.55l.25.52L104,34.28l-.24-.52Z"/><path class="cls-2" d="M105.87,35.24c.54-.13.89-.11,1,.19s-.3.5-.77.61c-.66.15-.9.06-1-.19S105.33,35.37,105.87,35.24Zm-.11-.58c-1,.25-1.31.84-1.2,1.31s.56.89,1.63.64,1.28-.85,1.17-1.3S106.69,34.44,105.76,34.66Z"/><path class="cls-2" d="M107.69,37.78v.53l-1.63.64h0l1.59,0v.54l-2.81-.09,0-.5,1.69-.66h0l-1.64,0v-.53Z"/><path class="cls-3" d="M98.35,31.63a3.64,3.64,0,0,0-4.57-.54h0A9,9,0,0,0,92,32.63c-1,1-3.4,4.69-4.36,6-.7,1-1.86,2.67-2.37,3.51-.62,1.06-1.14,1.68-.84,2,.51.57,1.12-1,1.24-.35a30,30,0,0,1-1.93,3.51c-.42.76,0,1.95,1.6,1,0,0,.94-.8,1.79-1.66A50.45,50.45,0,0,1,90.69,43c1-.81,2.51-2.56,3.52-3.51.7-.71.42-1,1-1.76a8.35,8.35,0,0,1,1-1c.62-.35,1-.05,1.4.46.71.74,1.77,2.07,2.45,2.71,1,.88,2.34,2.29,3.17,3.22.08.09.87,1,1.62.24.32-.31.17-.79-.12-1.28h0a.09.09,0,0,0,.1,0h0c.2-.21-.59-1.23-1-2.05-2.89-5.57-4.8-7.72-5.88-8.62"/><path class="cls-4" d="M100.19,42.73c-.1.33-1.24.33-2.27.43s-3.38.3-4.11.32a29,29,0,0,1-3.36.09,2.43,2.43,0,0,1-2.15-1.31c-.54-1-.46-2.54.08-2.81s1.18.14,2.34.11a11,11,0,0,1,1.4.07c.77.09,1.55.12,2.32.28,1.09.21,2.7.35,3.85.45a10.72,10.72,0,0,1,1.76.34c1.4.48.91,1.18.48,1.33-.11,0-.63.23-.63.34S100.21,42.65,100.19,42.73Z"/><path class="cls-3" d="M119.81,47.28h-1.33l.7-2.45h0Zm.63,2.31h1.41L120,43.69h-1.51l-2,5.9h1.34l.4-1.32h1.85Z"/><path class="cls-3" d="M124.91,46.29a2.6,2.6,0,0,0-1.07-.23c-.35,0-.5.16-.5.32s.2.36.92.63a1.24,1.24,0,0,1,.93,1.29c0,1-.7,1.36-1.62,1.36a4.82,4.82,0,0,1-1.41-.21v-1a2.18,2.18,0,0,0,1.1.31c.63,0,.67-.22.67-.41s-.35-.28-.92-.52a1.35,1.35,0,0,1-.92-1.35c0-.48.34-1.32,1.64-1.32a4.21,4.21,0,0,1,1.23.18Z"/><path class="cls-3" d="M128.22,47.72c0,1.07-.71,1.09-.8,1.09a.51.51,0,0,1-.57-.45.24.24,0,0,1,0-.12c0-.7.83-.77,1.4-.77Zm-2-1.33a2.23,2.23,0,0,1,1.22-.41c.2,0,.83,0,.83.85h-.41c-.47,0-2.18,0-2.18,1.47a1.27,1.27,0,0,0,1.2,1.34H127a1.3,1.3,0,0,0,1.21-.71h0v.61h1.22v-2.8c0-1-.35-1.62-1.9-1.62a5.12,5.12,0,0,0-1.4.28Z"/><path class="cls-3" d="M132.7,46.88c0-.55-.26-.71-.52-.71-.43,0-.59.38-.59.95v2.46h-1.33V46.07a7.22,7.22,0,0,0,0-.93h1.22v.74h0a1.2,1.2,0,0,1,1.24-.8c1,0,1.29.7,1.29,1.59v2.88H132.7Z"/><path class="cls-3" d="M141.89,44.92h0l-1.33,4.67h-.91l-1.28-4.67h0v4.67H137.1v-5.9h2.11l.95,3.8h0l1-3.8h2v5.9h-1.3Z"/><path class="cls-3" d="M145.26,47c0-.23,0-1.08.7-1.08.55,0,.7.52.7,1.08Zm2.59.41c0-2.3-1.51-2.3-1.91-2.3a2.31,2.31,0,0,0-.17,4.53,2.26,2.26,0,0,0,.45,0,4.18,4.18,0,0,0,1.4-.26v-1a2.68,2.68,0,0,1-1.24.34,1,1,0,0,1-1.08-.85.76.76,0,0,1,0-.15h2.6Z"/><path class="cls-3" d="M149.83,47.38c0-.7,0-1.35.64-1.35s.7.66.7,1.35c0,.51-.12,1.31-.7,1.31S149.83,47.85,149.83,47.38Zm2.64-4.14h-1.34v2.6h0a1.15,1.15,0,0,0-1.13-.71c-1.11,0-1.54,1-1.54,2.17,0,1.4.55,2.37,1.54,2.37a1.28,1.28,0,0,0,1.18-.78h0a4.09,4.09,0,0,0,0,.7h1.26v-1Z"/><path class="cls-3" d="M153.36,45.18h1.33v4.41h-1.34Zm0-1.93h1.33v1.19h-1.34Z"/><path class="cls-3" d="M158.69,49.49a4.92,4.92,0,0,1-1.21.18,2,2,0,0,1-2.11-2,2.35,2.35,0,0,1,0-.26,2.1,2.1,0,0,1,1.88-2.31h.29a3.58,3.58,0,0,1,1.07.22l-.07,1a2.29,2.29,0,0,0-.78-.19c-1,0-1,1.12-1,1.29a1.07,1.07,0,0,0,.9,1.21.55.55,0,0,0,.18,0,2.13,2.13,0,0,0,.78-.19Z"/><path class="cls-3" d="M161.66,47.72c0,1.07-.71,1.09-.8,1.09a.51.51,0,0,1-.57-.45.24.24,0,0,1,0-.12c0-.7.83-.77,1.4-.77Zm-2-1.33a2.21,2.21,0,0,1,1.22-.39c.19,0,.82,0,.82.85h-.41c-.46,0-2.18,0-2.18,1.47a1.29,1.29,0,0,0,1.21,1.34h.15a1.29,1.29,0,0,0,1.21-.7h0v.6h1.21V46.74c0-1-.35-1.62-1.9-1.62a5.12,5.12,0,0,0-1.4.28Z"/><path class="cls-3" d="M163.74,43.25h1.34v6.32h-1.34Z"/><path class="cls-3" d="M172.14,45a2.12,2.12,0,0,0-1.2-.34c-.93,0-1.52.75-1.52,1.94s.67,1.93,1.54,1.93a2.32,2.32,0,0,0,1.21-.31l.08,1.24a4.65,4.65,0,0,1-1.48.21A2.77,2.77,0,0,1,168,46.62a2.71,2.71,0,0,1,2.65-3,3.74,3.74,0,0,1,1.55.28Z"/><path class="cls-3" d="M174,47c0-.23,0-1.08.7-1.08s.7.52.7,1.08Zm2.59.41c0-2.3-1.51-2.3-1.91-2.3a2.31,2.31,0,0,0-.17,4.53,2.26,2.26,0,0,0,.45,0,4.18,4.18,0,0,0,1.4-.26v-1a2.68,2.68,0,0,1-1.24.34,1,1,0,0,1-1.08-.85.76.76,0,0,1,0-.15h2.59Z"/><path class="cls-3" d="M179.73,46.88c0-.55-.25-.71-.52-.71-.43,0-.58.38-.58.95v2.46h-1.34V46.07a7.23,7.23,0,0,0,0-.93h1.22v.74h0a1.2,1.2,0,0,1,1.24-.8c1,0,1.29.7,1.29,1.59v2.88h-1.33Z"/><path class="cls-3" d="M181.56,45.18h.76v-.9l1.3-.41v1.31h.86v.94h-.86v2c0,.43.2.55.45.55a1,1,0,0,0,.44-.1v.94a3.71,3.71,0,0,1-.93.12,1.18,1.18,0,0,1-1.3-1,2.17,2.17,0,0,1,0-.26V46.12h-.71Z"/><path class="cls-3" d="M186.3,47c0-.23,0-1.08.7-1.08s.7.52.7,1.08Zm2.59.41c0-2.3-1.51-2.3-1.91-2.3a2.31,2.31,0,0,0-.17,4.53,2.34,2.34,0,0,0,.46,0,4,4,0,0,0,1.4-.26v-1a2.68,2.68,0,0,1-1.24.34,1,1,0,0,1-1.12-.81.61.61,0,0,1,0-.19h2.59Z"/><path class="cls-3" d="M189.56,46.11a7.23,7.23,0,0,0,0-.93h1.21V46h0c.28-.47.46-.86,1.22-.86h.2v1.23a2.12,2.12,0,0,0-.44-.05c-.78,0-.87.7-.87,1.32v2h-1.34Z"/><path class="cls-3" d="M177.69,28.73h-1.87V27.32H174v2h-2.85V27.35h-1.79v6a.62.62,0,0,0,.64.6h5.81V32.6h1.87v1.89h1.8V27.22h-1.8ZM174,32.56h-2.85v-1.9H174Zm1.81-1.33V30.05h1.87v1.18Z"/><path class="cls-3" d="M183.31,36.43v3a.61.61,0,0,0,.63.59h8V38.65h-6.77V36.43Z"/><polygon class="cls-3" points="183.31 35.58 185.14 35.58 185.14 33.85 190.15 33.85 190.15 34.42 187.42 34.42 187.42 35.79 190.15 35.79 190.15 37.1 191.94 37.1 191.94 27.26 190.15 27.26 190.15 32.48 181.51 32.48 181.51 33.85 183.31 33.85 183.31 35.58"/><polygon class="cls-3" points="166.12 27.22 164.09 27.22 164.09 35.81 166.12 35.81 166.12 31.46 167.95 31.46 167.95 30.11 166.12 30.11 166.12 27.22"/><polygon class="cls-3" points="152.99 27.22 150.97 27.22 150.97 40.28 152.99 40.28 152.99 32.27 154.83 32.27 154.83 30.91 152.99 30.91 152.99 27.22"/><path class="cls-3" d="M146.18,37c2.46,0,3.29-2.81,3.29-4.88s-.83-4.92-3.29-4.92-3.3,2.81-3.3,4.92S143.71,37,146.18,37Zm0-8.43c1.13,0,1.32,2.06,1.32,3.52s-.19,3.51-1.32,3.51-1.32-2-1.32-3.48.19-3.53,1.32-3.53Z"/><path class="cls-3" d="M159.42,32.12a8.15,8.15,0,0,0,2.7,2.62l.9-1.15a5.4,5.4,0,0,1-2-2.1,7.22,7.22,0,0,1-.66-3.33v-.81h-2.1v.77a7.09,7.09,0,0,1-.71,3.33,5.44,5.44,0,0,1-1.93,2.11l.92,1.18A8.86,8.86,0,0,0,159.42,32.12Z"/><path class="cls-3" d="M158.05,35.37v4a.61.61,0,0,0,.61.62h7.51V38.58h-6.11V35.37Z"/><path class="cls-3" d="M179.44,37.75c0-1.76-2.06-2.81-4.61-2.81s-4.61,1-4.61,2.81,2.06,2.8,4.61,2.8S179.44,39.51,179.44,37.75Zm-7.16,0c0-1,1.13-1.56,2.55-1.56s2.56.54,2.56,1.56-1.14,1.55-2.56,1.55-2.58-.52-2.58-1.55Z"/><path class="cls-3" d="M185.44,31.93c1.95,0,3.51-.88,3.51-2.42s-1.59-2.42-3.51-2.42-3.51.89-3.51,2.42S183.49,31.93,185.44,31.93Zm0-3.79a1.41,1.41,0,1,1-1.52,1.37,1.35,1.35,0,0,1,1.32-1.4.67.67,0,0,1,.2,0Z"/><path class="cls-3" d="M134.32,34.3h-3.95v1.37h7.72v.78h-7.72v2.88a.61.61,0,0,0,.63.6h9.3V38.57h-7.9v-.86h7.72V34.3h-3.78v-.82h4.92v-1.4H129.4v1.4h4.92Z"/><polygon class="cls-3" points="122.56 31.85 125.38 31.85 125.38 40.3 127.41 40.3 127.41 27.22 125.38 27.22 125.38 30.53 122.56 30.53 122.56 31.85"/><path class="cls-3" d="M130.39,29.27c0,1.51,2.21,2.36,4.91,2.36s4.92-.85,4.92-2.36-2.21-2.35-4.92-2.35S130.39,27.77,130.39,29.27Zm7.57,0c0,.76-1.18,1.14-2.63,1.14s-2.63-.38-2.63-1.14,1.18-1.15,2.63-1.15,2.63.4,2.63,1.16Z"/><path class="cls-3" d="M119.85,34.74a7.47,7.47,0,0,0,2.92,2.6l.94-1.2a5.68,5.68,0,0,1-2-2.1,8,8,0,0,1-.81-3.63V27.35h-2v3.07A8,8,0,0,1,118,34a5.63,5.63,0,0,1-2,2.1l.94,1.15A7.56,7.56,0,0,0,119.85,34.74Z"/></g></g></g></g></svg>